<svg width="40" height="40" viewBox="0 0 40 40" fill="none" xmlns="http://www.w3.org/2000/svg">
<path d="M20.0073 1.33066e-06C16.0514 -0.00144139 12.1839 1.17031 8.89391 3.36706C5.60397 5.56381 3.03938 8.68688 1.52451 12.3413C0.0096416 15.9957 -0.387466 20.0172 0.383414 23.8973C1.15429 27.7774 3.05853 31.3418 5.85529 34.1395C8.65205 36.9373 12.2157 38.8429 16.0955 39.6152C19.9753 40.3875 23.997 39.9918 27.652 38.4783C31.3069 36.9647 34.4309 34.4013 36.6289 31.1122C38.8268 27.823 40 23.9559 40 20C40 14.6969 37.8939 9.61096 34.1447 5.86044C30.3956 2.10993 25.3104 0.00193534 20.0073 1.33066e-06ZM20.0073 37.6149C16.522 37.6149 13.1149 36.5813 10.2169 34.645C7.31899 32.7087 5.06032 29.9564 3.72654 26.7364C2.39276 23.5164 2.04378 19.9732 2.72373 16.5548C3.40369 13.1364 5.08204 9.99645 7.54654 7.53195C10.011 5.06744 13.151 3.38909 16.5694 2.70914C19.9877 2.02918 23.531 2.37816 26.751 3.71194C29.971 5.04572 32.7232 7.3044 34.6596 10.2023C36.5959 13.1003 37.6295 16.5074 37.6295 19.9927C37.6295 24.6664 35.7729 29.1487 32.4681 32.4535C29.1633 35.7583 24.681 37.6149 20.0073 37.6149Z" fill="#FBBF12"/>
<path d="M21.1597 16.2148V23.764C21.1371 24.0435 21.0101 24.3042 20.804 24.4942C20.5979 24.6843 20.3278 24.7899 20.0474 24.7899C19.767 24.7899 19.4969 24.6843 19.2908 24.4942C19.0847 24.3042 18.9577 24.0435 18.9351 23.764V16.2148C18.9577 15.9353 19.0847 15.6746 19.2908 15.4846C19.4969 15.2945 19.767 15.189 20.0474 15.189C20.3278 15.189 20.5979 15.2945 20.804 15.4846C21.0101 15.6746 21.1371 15.9353 21.1597 16.2148Z" fill="#FBBF12"/>
<path d="M27.2794 19.1687H36.0322C35.8421 15.5652 34.443 12.131 32.0608 9.42055C29.6786 6.71014 26.4523 4.88177 22.9031 4.23069V9.52609H28.7382V14.8288C28.7382 15.4091 28.5077 15.9657 28.0973 16.3761C27.6869 16.7864 27.1304 17.017 26.55 17.017C26.3874 15.636 25.7905 14.3424 24.8454 13.3226C23.9003 12.3027 22.6557 11.6093 21.2911 11.3423V4.04834C20.8753 4.04834 20.4742 4.04834 20.0511 4.04834C19.6281 4.04834 19.2269 4.04834 18.8257 4.04834V11.3423C17.4598 11.6079 16.2136 12.3007 15.2671 13.3207C14.3205 14.3407 13.7226 15.635 13.5595 17.017C12.9792 17.017 12.4226 16.7864 12.0122 16.3761C11.6019 15.9657 11.3713 15.4091 11.3713 14.8288V9.52609H17.2065V4.23069C13.6572 4.88177 10.431 6.71014 8.0488 9.42055C5.6666 12.131 4.26748 15.5652 4.07739 19.1687H12.8301V20.8098H4.07739C4.2643 24.4159 5.66197 27.8535 8.04444 30.5668C10.4269 33.2802 13.6549 35.1107 17.2065 35.7624V30.4451H11.3276V25.157C11.3276 24.5767 11.5581 24.0201 11.9685 23.6097C12.3788 23.1994 12.9354 22.9688 13.5158 22.9688C13.5171 23.0599 13.5294 23.1505 13.5522 23.2387L13.596 23.494C13.5867 23.5823 13.6045 23.6713 13.647 23.7493C13.7054 23.8222 13.6908 23.9243 13.72 23.9973C13.7492 24.0702 13.72 23.9973 13.72 24.0337C13.7858 24.268 13.8687 24.4972 13.968 24.7194L14.0774 24.9528C14.1073 25.0371 14.1464 25.1178 14.1941 25.1935C14.2107 25.2314 14.2302 25.268 14.2524 25.3029L14.3327 25.4707C14.3733 25.5212 14.4099 25.5749 14.4421 25.6311L14.5515 25.7916C14.5744 25.8471 14.6093 25.8969 14.6536 25.9375C14.6906 26.0051 14.7346 26.0687 14.7849 26.1271C14.827 26.1909 14.8733 26.2518 14.9235 26.3095L15.0475 26.4626C15.1058 26.521 15.1569 26.5939 15.2225 26.6523L15.3976 26.8346C15.4555 26.8985 15.519 26.957 15.5872 27.0097C15.7068 27.1268 15.8335 27.2364 15.9665 27.3379C16.1051 27.4473 16.2437 27.5494 16.3896 27.6443C16.4545 27.6964 16.5255 27.7405 16.6011 27.7755L16.8199 27.9068C16.9669 27.9962 17.1206 28.0742 17.2794 28.1402L17.5128 28.2496C17.9196 28.4165 18.3424 28.5412 18.7747 28.6216V35.9739C19.1759 35.9739 19.5916 36.0177 20.0001 36.0177C20.4139 36.025 20.8278 36.0104 21.24 35.9739V28.68C21.6678 28.6005 22.0859 28.4758 22.4873 28.308L22.728 28.1986C22.8869 28.1326 23.0405 28.0545 23.1875 27.9652C23.2645 27.9285 23.3378 27.8845 23.4063 27.8339C23.4844 27.7963 23.5579 27.7498 23.6252 27.6953C23.7637 27.6005 23.9023 27.5057 24.0409 27.3963C24.1795 27.2868 24.3035 27.1847 24.4275 27.068C24.4918 27.0135 24.5527 26.955 24.6098 26.893L24.7849 26.7106L24.9672 26.5137L25.084 26.3678L25.2225 26.1782C25.2727 26.1223 25.3167 26.0611 25.3538 25.9958C25.3966 25.954 25.4313 25.9045 25.4559 25.8499C25.4559 25.7989 25.5362 25.7405 25.5654 25.6895C25.6036 25.6388 25.6377 25.5851 25.6675 25.529L25.7623 25.3612C25.7773 25.3203 25.7969 25.2811 25.8206 25.2445C25.862 25.1702 25.8962 25.092 25.9228 25.0111C25.9652 24.9363 26.0017 24.8582 26.0322 24.7777C26.1288 24.5485 26.2069 24.3119 26.2656 24.0702C26.2942 23.9895 26.3162 23.9065 26.3312 23.8222C26.3558 23.7388 26.3729 23.6534 26.3823 23.5669C26.4098 23.4818 26.4269 23.3936 26.4333 23.3044C26.4333 23.2168 26.4698 23.1366 26.4698 23.0418C27.0501 23.0418 27.6067 23.2723 28.0171 23.6827C28.4274 24.093 28.658 24.6496 28.658 25.23V30.5181H22.8958V35.8281C26.4508 35.1755 29.6815 33.3418 32.0644 30.624C34.4472 27.9062 35.8428 24.4635 36.0249 20.8536H27.2721L27.2794 19.1687ZM24.2743 22.2176C24.3198 23.3492 23.9138 24.4526 23.1458 25.285C22.3777 26.1173 21.3104 26.6105 20.1788 26.6559C19.0471 26.7014 17.9437 26.2954 17.1114 25.5274C16.279 24.7593 15.7859 23.692 15.7404 22.5604V17.7682C15.6949 16.6366 16.1009 15.5332 16.869 14.7009C17.637 13.8685 18.7043 13.3753 19.836 13.3299C20.9676 13.2844 22.071 13.6904 22.9034 14.4584C23.7357 15.2265 24.2289 16.2938 24.2743 17.4254V22.2176Z" fill="#FBBF12"/>
</svg>
