<svg width="100" height="100" viewBox="0 0 100 100" fill="none" xmlns="http://www.w3.org/2000/svg">
<path fill-rule="evenodd" clip-rule="evenodd" d="M19.6792 8.41256L2.07239 45.3957C2.00539 45.5333 1.98416 45.6886 2.0118 45.8391C2.03944 45.9896 2.1145 46.1273 2.22601 46.2321L49.7778 91.7981C49.9129 91.9277 50.0928 92 50.2799 92C50.467 92 50.647 91.9277 50.782 91.7981L98.3338 46.2349C98.4453 46.1302 98.5204 45.9925 98.548 45.842C98.5757 45.6915 98.5544 45.5361 98.4874 45.3985L80.8806 8.4154C80.8238 8.2912 80.7324 8.18598 80.6174 8.11233C80.5024 8.03867 80.3686 7.9997 80.232 8.00006H20.3335C20.1963 7.99835 20.0615 8.03639 19.9454 8.10958C19.8293 8.18277 19.7368 8.288 19.6792 8.41256Z" fill="#50AF95"/>
<path fill-rule="evenodd" clip-rule="evenodd" d="M56.3893 49.1935C56.0479 49.2191 54.2841 49.3244 50.3496 49.3244C47.2203 49.3244 44.9984 49.2305 44.219 49.1935C32.1255 48.6615 23.0987 46.5563 23.0987 44.0358C23.0987 41.5152 32.1255 39.4129 44.219 38.8723V47.0968C45.0098 47.1537 47.2743 47.2874 50.4037 47.2874C54.1589 47.2874 56.0393 47.131 56.3779 47.0997V38.878C68.4458 39.4157 77.4526 41.5209 77.4526 44.0358C77.4526 46.5506 68.4486 48.6558 56.3779 49.1906L56.3893 49.1935ZM56.3893 38.0274V30.6678H73.2308V19.4448H27.3774V30.6678H44.2161V38.0246C30.5295 38.6533 20.2368 41.3644 20.2368 44.6133C20.2368 47.8621 30.5295 50.5704 44.2161 51.202V74.7858H56.3864V51.1934C70.0417 50.5647 80.3173 47.8564 80.3173 44.6104C80.3173 41.3644 70.0503 38.6561 56.3864 38.0246L56.3893 38.0274Z" fill="white"/>
</svg>
