<svg width="173" height="39" viewBox="0 0 173 39" fill="none" xmlns="http://www.w3.org/2000/svg">
<path d="M8.84534 17.4656L8.81836 16.588L10.907 18.5975L16.1423 13.873L21.6851 18.7588L23.8035 16.6891L23.7927 17.4054L21.5907 19.5845L16.1423 15.1526L10.907 19.6774L8.84534 17.4656Z" fill="#04755D"/>
<path d="M21.1399 27.1276L16.3977 31.837C16.3336 31.9006 16.2303 31.9006 16.1663 31.8369L11.436 27.1263C11.4045 27.0949 11.3871 27.0521 11.3877 27.0076L11.4 26.1643C11.4021 26.02 11.576 25.9486 11.679 26.0496L16.1667 30.4555C16.2306 30.5182 16.3331 30.5181 16.3968 30.4552L20.8806 26.0309C20.9824 25.9304 21.1551 25.9993 21.1598 26.1422L21.1882 27.0058C21.1897 27.0513 21.1722 27.0954 21.1399 27.1276Z" fill="#04755D"/>
<path d="M8.49805 24.367V23.3171H8.70314L10.271 24.9357L16.278 19.5879L22.3498 25.0587L24.1038 23.3199V24.2905L22.3498 26.0266L16.3967 20.8811C16.3017 20.798 16.1863 20.8465 16.1404 20.8811L10.271 26.1387L8.49805 24.367Z" fill="#04755D"/>
<path d="M16.1969 14.4065L10.9818 18.8592C10.9256 18.9072 10.8413 18.9018 10.7917 18.847L8.8531 16.7055C8.80182 16.6488 8.80693 16.5611 8.86446 16.5108L16.1958 10.1004C16.2474 10.0552 16.3246 10.0554 16.3761 10.1007L23.7652 16.6019C23.8244 16.654 23.8274 16.7452 23.7717 16.8011L21.7271 18.8526C21.6765 18.9034 21.5953 18.9065 21.541 18.8597L16.3749 14.4069C16.3238 14.3629 16.2482 14.3627 16.1969 14.4065Z" fill="#0AD0A2"/>
<path d="M16.1795 20.135L10.3882 25.1427C10.3314 25.1919 10.2461 25.1883 10.1936 25.1345L8.53283 23.4349C8.47576 23.3765 8.47951 23.2821 8.54101 23.2284L16.1793 16.5599C16.2327 16.5132 16.3123 16.5131 16.3659 16.5596L24.0557 23.2273C24.1181 23.2813 24.1215 23.3769 24.0631 23.4353L22.3594 25.1369C22.3067 25.1895 22.2224 25.1926 22.166 25.1439L16.3654 20.1349C16.312 20.0888 16.2329 20.0889 16.1795 20.135Z" fill="#0C8F73"/>
<path d="M16.2588 22.0371L14.0352 23.9591L16.2588 26.1054L18.5499 23.9591L16.2588 22.0371Z" fill="#0C8F73"/>
<path d="M19.6373 24.7592L16.3689 27.7018C16.3275 27.7391 16.2648 27.7393 16.2231 27.7024L12.9021 24.7589C12.8592 24.7209 12.7941 24.7225 12.7531 24.7626L11.4448 26.0416C11.4003 26.0851 11.401 26.1568 11.4463 26.1995L16.2211 30.6957C16.2633 30.7354 16.3291 30.7354 16.3712 30.6956L21.1267 26.2004C21.1722 26.1574 21.1723 26.085 21.1271 26.0418L19.786 24.7614C19.7446 24.7219 19.6798 24.721 19.6373 24.7592Z" fill="#0C8F73"/>
<path d="M18.5245 24.5749L16.2712 26.6473L14.0989 24.5749L14.0449 23.957L16.2712 25.9556L18.5245 23.957V24.5749Z" fill="#04755D"/>
<path d="M9.83226 20.6658L9.96079 19.8524L0.418943 14.1024C0.548844 19.216 4.20238 20.3768 6.01291 20.318L7.97903 22.2506L9.83226 20.6658Z" fill="#C0C0C0"/>
<path d="M9.83226 20.6697L9.96079 19.8563L0.418943 14.1063C0.548844 19.2199 4.20238 20.3807 6.01291 20.3219L7.97903 22.2545L9.83226 20.6697Z" fill="#04755D"/>
<path fill-rule="evenodd" clip-rule="evenodd" d="M0.379268 14.0747C0.237492 16.988 2.45365 19.4662 5.32919 19.6099C5.55856 19.6213 5.78519 19.6176 6.00814 19.5995L8.06815 21.6642L9.96058 19.8634L8.71525 18.5589C8.71682 18.5578 8.71839 18.5566 8.71995 18.5554L7.44721 17.2146C7.28168 17 7.07355 16.4733 7.56537 16.0839L10.5792 13.6442L10.7384 13.526C10.3697 11.0982 8.35854 9.18533 5.84261 9.05966C2.96706 8.91602 0.521044 11.1613 0.379268 14.0747Z" fill="#18B38F"/>
<path fill-rule="evenodd" clip-rule="evenodd" d="M9.16508 14.7859C9.17399 14.7066 9.18045 14.6264 9.18438 14.5456C9.28407 12.4971 7.72582 10.7546 5.70393 10.6536C3.68204 10.5526 1.96216 12.1313 1.86247 14.1798C1.76278 16.2283 3.32103 17.9708 5.34293 18.0718C6.19041 18.1141 6.98483 17.8613 7.62912 17.4025L7.55809 17.3259C6.99575 16.7117 7.34172 16.2298 7.58499 16.0655L9.16508 14.7859Z" fill="#0AD0A2"/>
<path d="M9.16579 14.7975L10.7366 13.5329C10.3496 11.2973 8.80995 10.0422 8.08852 9.69417C6.18592 8.69678 4.35496 9.09681 3.6773 9.42149L4.43618 10.8083C5.95815 10.382 7.15007 10.9361 7.55578 11.2664C9.11699 12.2979 9.27963 14.0503 9.16579 14.7975Z" fill="black" fill-opacity="0.5"/>
<path d="M22.5569 20.7603L22.4511 19.9436L32.1494 14.4688C31.877 19.5766 28.1926 20.6325 26.3844 20.5219L24.3652 22.3975L22.5569 20.7603Z" fill="#04755D"/>
<path fill-rule="evenodd" clip-rule="evenodd" d="M32.2005 14.4434C32.261 17.3596 29.9767 19.7735 27.0983 19.8348C26.8567 19.8399 26.6185 19.8283 26.3849 19.801L24.2848 21.7903L22.4433 19.9361L23.9544 18.4402L23.9708 18.4472L25.0517 17.3711C25.2232 17.1613 25.4459 16.6407 24.9651 16.2374L22.0205 13.7126L21.8627 13.5882C22.3029 11.177 24.3643 9.32766 26.8791 9.27408C29.7575 9.21276 32.14 11.5271 32.2005 14.4434Z" fill="#18B38F"/>
<path fill-rule="evenodd" clip-rule="evenodd" d="M23.3928 14.887C23.3864 14.8094 23.3823 14.7311 23.3807 14.6521C23.3381 12.6016 24.9443 10.9044 26.9682 10.8613C28.9921 10.8182 30.6673 12.4455 30.7099 14.496C30.7524 16.5465 29.1462 18.2437 27.1223 18.2868C26.2752 18.3049 25.4892 18.0303 24.8584 17.5545L24.9344 17.4771C25.5136 16.8792 25.1812 16.3876 24.9426 16.2165L23.3928 14.887Z" fill="#0AD0A2"/>
<path d="M23.3939 14.9047L21.8589 13.5957C22.3081 11.372 23.8821 10.1615 24.6129 9.83423C26.5426 8.89167 28.3616 9.34391 29.03 9.68785L28.2328 11.0524C26.7233 10.5827 25.5164 11.1025 25.1016 11.4211C23.5123 12.4075 23.3009 14.1545 23.3939 14.9047Z" fill="black" fill-opacity="0.5"/>
<path fill-rule="evenodd" clip-rule="evenodd" d="M4.9978 31.7173C2.35525 31.6052 0.302716 29.344 0.413329 26.6667C0.523942 23.9894 2.75582 21.9098 5.39836 22.0219C6.15671 22.0541 6.86647 22.2632 7.49046 22.6084L6.51418 23.4224C6.3729 23.6153 6.22957 24.1579 6.78654 24.7846L9.79297 28.2408C9.18766 30.3287 7.24065 31.8124 4.9978 31.7173Z" fill="#04755D"/>
<path d="M7.42854 23.3187L7.45665 22.6382L5.78151 23.3368L6.21015 24.7433L8.18388 26.4981C6.52678 24.6437 6.57972 23.9277 6.81332 23.8014L7.42854 23.3187Z" fill="#036853"/>
<path fill-rule="evenodd" clip-rule="evenodd" d="M8.2732 26.5626L6.70892 24.7673C6.5645 24.6013 6.35778 24.2626 6.34987 23.9107C6.00366 23.7607 5.62523 23.6705 5.22668 23.6536C3.46311 23.5788 1.9736 24.9667 1.89978 26.7535C1.82596 28.5402 3.19578 30.0493 4.95935 30.1241C6.72293 30.1989 8.21244 28.8111 8.28626 27.0243C8.29271 26.868 8.28813 26.7139 8.2732 26.5626Z" fill="#0C8F73"/>
<path d="M0.727712 28.7323L2.12765 28.0912C1.86356 27.5197 1.88371 26.7417 1.92679 26.4242C2.17594 24.7763 3.45426 23.997 4.06228 23.8134C5.04355 23.4756 5.99797 23.7374 6.35253 23.9105C6.34432 23.6891 6.4384 23.5079 6.48647 23.4451L7.45908 22.6413C7.06639 22.3608 6.28073 22.1715 5.93698 22.1119C3.37249 21.689 1.68503 23.3461 1.16186 24.2275C0.0169172 25.9456 0.395369 27.9466 0.727712 28.7323Z" fill="#0C5947"/>
<path fill-rule="evenodd" clip-rule="evenodd" d="M27.4065 31.7173C30.049 31.6052 32.1016 29.344 31.991 26.6667C31.8804 23.9894 29.6485 21.9098 27.0059 22.0219C26.2476 22.0541 25.5378 22.2632 24.9138 22.6084L25.8901 23.4224C26.0314 23.6153 26.1747 24.1579 25.6178 24.7846L22.6113 28.2408C23.2166 30.3287 25.1637 31.8124 27.4065 31.7173Z" fill="#04755D"/>
<path d="M24.9719 23.3187L24.9437 22.6382L26.6189 23.3368L26.1902 24.7433L24.2165 26.4981C25.8736 24.6437 25.8207 23.9277 25.5871 23.8014L24.9719 23.3187Z" fill="#036853"/>
<path fill-rule="evenodd" clip-rule="evenodd" d="M24.1252 26.5626L25.6895 24.7673C25.8339 24.6013 26.0407 24.2626 26.0486 23.9107C26.3948 23.7607 26.7732 23.6705 27.1718 23.6536C28.9353 23.5788 30.4248 24.9667 30.4987 26.7535C30.5725 28.5402 29.2027 30.0493 27.4391 30.1241C25.6755 30.1989 24.186 28.8111 24.1122 27.0243C24.1057 26.868 24.1103 26.7139 24.1252 26.5626Z" fill="#0C8F73"/>
<path d="M31.6727 28.7323L30.2727 28.0912C30.5368 27.5197 30.5167 26.7417 30.4736 26.4242C30.2245 24.7763 28.9461 23.997 28.3381 23.8134C27.3568 23.4756 26.4024 23.7374 26.0479 23.9105C26.0561 23.6891 25.962 23.5079 25.9139 23.4451L24.9413 22.6413C25.334 22.3608 26.1197 22.1715 26.4634 22.1119C29.0279 21.689 30.7154 23.3461 31.2385 24.2275C32.3835 25.9456 32.005 27.9466 31.6727 28.7323Z" fill="#0C5947"/>
<path fill-rule="evenodd" clip-rule="evenodd" d="M12.4814 30.2578L16.4672 34.1823L16.5583 34.0873L16.5584 34.0875L20.4279 30.2775C21.1217 31.1587 21.5364 32.2754 21.5364 33.4903C21.5364 36.3381 19.2578 38.6467 16.4469 38.6467C13.6361 38.6467 11.3574 36.3381 11.3574 33.4903C11.3574 32.2664 11.7783 31.1421 12.4814 30.2578Z" fill="#04755D"/>
<path fill-rule="evenodd" clip-rule="evenodd" d="M13.5345 31.293L16.461 34.1746L16.5522 34.0796L16.5523 34.0798L19.2891 31.385C19.703 31.9753 19.9463 32.6969 19.9463 33.4761C19.9463 35.4725 18.3489 37.0909 16.3784 37.0909C14.4079 37.0909 12.8105 35.4725 12.8105 33.4761C12.8105 32.6559 13.0802 31.8995 13.5345 31.293Z" fill="#0C8F73"/>
<path fill-rule="evenodd" clip-rule="evenodd" d="M13.9319 10.5523L12.7241 11.5967C11.6309 10.62 10.9414 9.19044 10.9414 7.59768C10.9414 4.65395 13.2968 2.26758 16.2023 2.26758C19.1079 2.26758 21.4632 4.65395 21.4632 7.59768C21.4632 9.19548 20.7693 10.6291 19.6702 11.606L18.454 10.5543C19.3283 9.86922 19.8913 8.79596 19.8913 7.58947C19.8913 5.52077 18.2361 3.84375 16.1942 3.84375C14.1524 3.84375 12.4971 5.52077 12.4971 7.58947C12.4971 8.79478 13.059 9.86711 13.9319 10.5523Z" fill="#18B38F"/>
<path fill-rule="evenodd" clip-rule="evenodd" d="M19.9001 7.59729C19.9001 8.80316 19.3376 9.87594 18.464 10.5611L16.1844 8.58975L16.1087 8.67959L13.9372 10.5574C13.0663 9.87214 12.5059 8.80102 12.5059 7.59729C12.5059 5.52858 14.1611 3.85156 16.203 3.85156C18.2448 3.85156 19.9001 5.52858 19.9001 7.59729Z" fill="#0AD0A2"/>
<path fill-rule="evenodd" clip-rule="evenodd" d="M12.0107 10.8405L13.1407 9.80312C12.5629 9.08367 11.796 7.15449 13.3509 5.19333C13.7152 4.65075 14.9283 3.63775 16.8672 3.92641C17.1781 3.96877 17.9624 4.20525 18.6129 4.81235L19.7898 3.68604C18.851 2.80874 17.5969 2.27245 16.2191 2.27143C13.3064 2.26927 10.9435 4.65974 10.9414 7.61069C10.9405 8.82396 11.3389 9.94308 12.0107 10.8405Z" fill="black" fill-opacity="0.5"/>
<path d="M53.5012 24.5846H46.3622L45.1809 28H41.406L47.8516 10.0497H52.0375L58.4832 28H54.6825L53.5012 24.5846ZM52.5254 21.7084L49.9317 14.2098L47.338 21.7084H52.5254ZM74.3231 13.7733V28H70.7022V26.2024C70.24 26.8187 69.6322 27.3066 68.8789 27.6662C68.1428 28.0086 67.3381 28.1798 66.465 28.1798C65.3522 28.1798 64.3678 27.9486 63.5118 27.4864C62.6558 27.007 61.9796 26.3137 61.4831 25.4063C61.0037 24.4818 60.7641 23.3862 60.7641 22.1193V13.7733H64.3593V21.6057C64.3593 22.7356 64.6417 23.6087 65.2067 24.225C65.7717 24.8242 66.5421 25.1238 67.5179 25.1238C68.5109 25.1238 69.2898 24.8242 69.8548 24.225C70.4197 23.6087 70.7022 22.7356 70.7022 21.6057V13.7733H74.3231ZM76.9459 20.8353C76.9459 19.3972 77.2284 18.1218 77.7933 17.009C78.3754 15.8962 79.1629 15.0402 80.1559 14.441C81.1488 13.8418 82.2531 13.5422 83.4686 13.5422C84.3931 13.5422 85.2748 13.7476 86.1136 14.1585C86.9525 14.5522 87.6202 15.083 88.1167 15.7506V8.9968H91.7632V28H88.1167V25.8942C87.6716 26.5962 87.0467 27.1611 86.242 27.5891C85.4374 28.0171 84.5044 28.2311 83.4429 28.2311C82.2445 28.2311 81.1488 27.923 80.1559 27.3066C79.1629 26.6903 78.3754 25.8258 77.7933 24.713C77.2284 23.583 76.9459 22.2905 76.9459 20.8353ZM88.1424 20.8866C88.1424 20.0135 87.9712 19.2688 87.6288 18.6525C87.2864 18.019 86.8241 17.5397 86.242 17.2144C85.66 16.872 85.0351 16.7008 84.3674 16.7008C83.6997 16.7008 83.0834 16.8634 82.5184 17.1887C81.9535 17.514 81.4912 17.9934 81.1317 18.6268C80.7893 19.2431 80.6181 19.9793 80.6181 20.8353C80.6181 21.6913 80.7893 22.4446 81.1317 23.0951C81.4912 23.7286 81.9535 24.2165 82.5184 24.5589C83.1005 24.9013 83.7168 25.0725 84.3674 25.0725C85.0351 25.0725 85.66 24.9098 86.242 24.5846C86.8241 24.2422 87.2864 23.7628 87.6288 23.1465C87.9712 22.513 88.1424 21.7598 88.1424 20.8866ZM97.0979 12.0784C96.4644 12.0784 95.9337 11.8815 95.5057 11.4878C95.0948 11.0769 94.8894 10.5718 94.8894 9.97264C94.8894 9.37344 95.0948 8.87696 95.5057 8.4832C95.9337 8.07232 96.4644 7.86688 97.0979 7.86688C97.7313 7.86688 98.2535 8.07232 98.6643 8.4832C99.0923 8.87696 99.3063 9.37344 99.3063 9.97264C99.3063 10.5718 99.0923 11.0769 98.6643 11.4878C98.2535 11.8815 97.7313 12.0784 97.0979 12.0784ZM98.8698 13.7733V28H95.2746V13.7733H98.8698ZM106.608 16.7265V23.6087C106.608 24.0881 106.719 24.439 106.942 24.6616C107.181 24.867 107.575 24.9698 108.123 24.9698H109.792V28H107.532C104.502 28 102.987 26.5277 102.987 23.583V16.7265H101.292V13.7733H102.987V10.2551H106.608V13.7733H109.792V16.7265H106.608ZM124.763 10.0754C126.646 10.0754 128.298 10.4434 129.719 11.1796C131.157 11.9158 132.261 12.9686 133.032 14.3382C133.819 15.6907 134.213 17.2658 134.213 19.0634C134.213 20.861 133.819 22.436 133.032 23.7885C132.261 25.1238 131.157 26.1596 129.719 26.8958C128.298 27.6319 126.646 28 124.763 28H118.497V10.0754H124.763ZM124.634 24.9441C126.518 24.9441 127.973 24.4305 129 23.4033C130.027 22.3761 130.541 20.9294 130.541 19.0634C130.541 17.1973 130.027 15.7421 129 14.6978C127.973 13.6363 126.518 13.1056 124.634 13.1056H122.092V24.9441H124.634ZM150.129 20.5785C150.129 21.0921 150.095 21.5543 150.027 21.9652H139.626C139.712 22.9924 140.071 23.797 140.705 24.3791C141.338 24.9612 142.117 25.2522 143.042 25.2522C144.377 25.2522 145.327 24.6787 145.892 23.5317H149.77C149.359 24.9013 148.572 26.0312 147.407 26.9214C146.243 27.7946 144.814 28.2311 143.119 28.2311C141.749 28.2311 140.517 27.9315 139.421 27.3323C138.342 26.716 137.495 25.8514 136.879 24.7386C136.279 23.6258 135.98 22.3418 135.98 20.8866C135.98 19.4143 136.279 18.1218 136.879 17.009C137.478 15.8962 138.317 15.0402 139.395 14.441C140.474 13.8418 141.715 13.5422 143.119 13.5422C144.471 13.5422 145.678 13.8332 146.74 14.4153C147.818 14.9974 148.649 15.8277 149.231 16.9062C149.83 17.9677 150.129 19.1918 150.129 20.5785ZM146.406 19.5513C146.389 18.6268 146.055 17.8906 145.404 17.3428C144.754 16.7778 143.958 16.4954 143.016 16.4954C142.126 16.4954 141.373 16.7693 140.756 17.3171C140.157 17.8478 139.789 18.5926 139.652 19.5513H146.406ZM163.822 10.0754V12.9772H156.349V17.5739H162.075V20.4244H156.349V28H152.754V10.0754H163.822ZM168.194 12.0784C167.561 12.0784 167.03 11.8815 166.602 11.4878C166.191 11.0769 165.986 10.5718 165.986 9.97264C165.986 9.37344 166.191 8.87696 166.602 8.4832C167.03 8.07232 167.561 7.86688 168.194 7.86688C168.828 7.86688 169.35 8.07232 169.761 8.4832C170.189 8.87696 170.403 9.37344 170.403 9.97264C170.403 10.5718 170.189 11.0769 169.761 11.4878C169.35 11.8815 168.828 12.0784 168.194 12.0784ZM169.966 13.7733V28H166.371V13.7733H169.966Z" fill="black"/>
</svg>
