<svg width="171" height="39" viewBox="0 0 171 39" fill="none" xmlns="http://www.w3.org/2000/svg">
<path d="M10.4035 20.1515L10.5396 19.2995L0.439829 13.2769C0.577326 18.6329 4.44448 19.8488 6.36087 19.7872L8.44195 21.8114L10.4035 20.1515Z" fill="#C0C0C0"/>
<path d="M10.4084 20.1539L10.5445 19.302L0.444712 13.2794C0.582208 18.6354 4.44936 19.8512 6.36575 19.7897L8.44683 21.8138L10.4084 20.1539Z" fill="#04755D"/>
<path fill-rule="evenodd" clip-rule="evenodd" d="M0.400219 13.2496C0.250154 16.301 2.59588 18.8967 5.63955 19.0471C5.8885 19.0595 6.13441 19.055 6.37619 19.0348L8.54912 21.19L10.5522 19.3037L8.9975 17.6923L8.9974 17.6923L7.88686 16.5347C7.71164 16.3098 7.49135 15.7582 8.01192 15.3503L11.202 12.795L11.3651 12.6751C10.9749 10.1321 8.84612 8.12843 6.18299 7.9968C3.13932 7.84635 0.550285 10.1981 0.400219 13.2496Z" fill="#18B38F"/>
<path fill-rule="evenodd" clip-rule="evenodd" d="M9.70421 13.9809C9.7133 13.8997 9.71993 13.8176 9.724 13.7348C9.82951 11.5892 8.18015 9.76413 6.04005 9.65834C3.89994 9.55255 2.0795 11.2061 1.97399 13.3517C1.86847 15.4973 3.51783 17.3224 5.65794 17.4282C6.55427 17.4725 7.39452 17.2082 8.0762 16.7284L7.99832 16.6452C7.40312 16.0019 7.7693 15.4972 8.02679 15.3252L9.70421 13.9809Z" fill="#0AD0A2"/>
<path d="M9.70065 13.9989L11.3633 12.6744C10.9536 10.3327 9.324 9.01816 8.56039 8.6536C6.54655 7.60893 4.60853 8.02792 3.89125 8.368L4.6945 9.82052C6.30546 9.374 7.56707 9.95439 7.9965 10.3004C9.649 11.3808 9.82114 13.2162 9.70065 13.9989Z" fill="black" fill-opacity="0.5"/>
<path d="M23.8771 20.2518L23.7651 19.3963L34.0304 13.662C33.7421 19.012 29.8423 20.1179 27.9284 20.0021L25.7911 21.9666L23.8771 20.2518Z" fill="#04755D"/>
<path fill-rule="evenodd" clip-rule="evenodd" d="M34.0756 13.633C34.1397 16.6875 31.7218 19.2157 28.6751 19.2799C28.427 19.2852 28.1824 19.2739 27.9424 19.2471L25.7108 21.3388L23.7616 19.3966L25.1147 18.0711C25.1144 18.0709 25.1141 18.0706 25.1137 18.0704L26.501 16.7038C26.6824 16.484 26.9182 15.9388 26.4093 15.5163L23.2925 12.8718L23.1316 12.7463C23.5941 10.2164 25.778 8.27478 28.4431 8.2186C31.4898 8.15437 34.0115 10.5785 34.0756 13.633Z" fill="#18B38F"/>
<path fill-rule="evenodd" clip-rule="evenodd" d="M24.7538 14.1019C24.7469 14.0202 24.7426 13.9377 24.7408 13.8546C24.6958 11.7069 26.3959 9.92918 28.5381 9.88402C30.6804 9.83886 32.4535 11.5433 32.4986 13.691C32.5436 15.8388 30.8435 17.6164 28.7013 17.6616C27.8041 17.6805 26.9717 17.3926 26.3038 16.8937L26.3837 16.8131C26.9967 16.187 26.6449 15.6721 26.3924 15.4928L24.7538 14.1019Z" fill="#0AD0A2"/>
<path d="M24.7582 14.1191L23.1336 12.7481C23.609 10.4189 25.275 9.15106 26.0486 8.80827C28.0911 7.82102 30.0165 8.2947 30.7239 8.65495L29.8801 10.0842C28.2823 9.59221 27.0049 10.1367 26.5659 10.4704C24.8836 11.5036 24.6598 13.3334 24.7582 14.1191Z" fill="black" fill-opacity="0.5"/>
<path fill-rule="evenodd" clip-rule="evenodd" d="M5.29238 31.7293C2.49533 31.6119 0.32279 29.2435 0.43987 26.4393C0.55695 23.6351 2.91932 21.457 5.71637 21.5744C6.52016 21.6081 7.27238 21.8277 7.93351 22.1902L6.89764 23.0448C6.7481 23.2469 6.59638 23.8152 7.18592 24.4716L10.3672 28.0906C9.72565 30.2762 7.66547 31.8289 5.29238 31.7293Z" fill="#04755D"/>
<path d="M7.86541 22.9375L7.89516 22.2248L6.12213 22.9565L6.57582 24.4297L8.66488 26.2676C6.91096 24.3253 6.96699 23.5753 7.21424 23.4431L7.86541 22.9375Z" fill="#036853"/>
<path fill-rule="evenodd" clip-rule="evenodd" d="M8.75664 26.3316L7.10092 24.4511C6.94829 24.2776 6.72991 23.9236 6.72093 23.5556C6.3545 23.3985 5.95398 23.3041 5.53217 23.2864C3.66548 23.208 2.08888 24.6617 2.01074 26.5331C1.93261 28.4046 3.38252 29.9853 5.24921 30.0636C7.1159 30.1419 8.69249 28.6883 8.77063 26.8168C8.77749 26.6526 8.77257 26.4905 8.75664 26.3316Z" fill="#0C8F73"/>
<path d="M0.768959 28.6075L2.25084 27.9358C1.97136 27.3372 1.99277 26.5224 2.03842 26.1898C2.30231 24.4637 3.65548 23.6474 4.29908 23.455C5.33776 23.1011 6.34797 23.3752 6.72324 23.5565C6.71457 23.3245 6.81418 23.1348 6.86507 23.0689L7.89464 22.227C7.47902 21.9333 6.64743 21.735 6.2836 21.6727C3.56918 21.23 1.78285 22.9659 1.22899 23.8891C0.0169082 25.6887 0.417268 27.7845 0.768959 28.6075Z" fill="#0C5947"/>
<path fill-rule="evenodd" clip-rule="evenodd" d="M28.9996 31.7293C31.7967 31.6119 33.9692 29.2435 33.8521 26.4393C33.735 23.6351 31.3727 21.457 28.5756 21.5744C27.7718 21.6081 27.0196 21.8277 26.3585 22.1902L27.3944 23.0448C27.5439 23.2469 27.6956 23.8152 27.1061 24.4716L23.9248 28.0906C24.5663 30.2762 26.6265 31.8289 28.9996 31.7293Z" fill="#04755D"/>
<path d="M26.4276 22.9375L26.3978 22.2248L28.1708 22.9565L27.7171 24.4297L25.6281 26.2676C27.382 24.3253 27.326 23.5753 27.0787 23.4431L26.4276 22.9375Z" fill="#036853"/>
<path fill-rule="evenodd" clip-rule="evenodd" d="M25.5352 26.3332L27.192 24.4516C27.3447 24.278 27.5631 23.9238 27.572 23.5557C27.9381 23.3988 28.3384 23.3046 28.7598 23.2869C30.6265 23.2085 32.2031 24.6622 32.2812 26.5336C32.3594 28.4051 30.9095 29.9857 29.0428 30.0641C27.1761 30.1424 25.5995 28.6888 25.5214 26.8173C25.5145 26.6534 25.5194 26.4918 25.5352 26.3332Z" fill="#0C8F73"/>
<path d="M33.5237 28.6074L32.0417 27.9356C32.3211 27.337 32.2996 26.5222 32.254 26.1896C31.9899 24.4636 30.6367 23.6471 29.9931 23.4547C28.9543 23.1006 27.9442 23.3747 27.5689 23.556C27.5775 23.324 27.4779 23.1342 27.427 23.0684L26.3974 22.2264C26.813 21.9327 27.6445 21.7345 28.0084 21.6722C30.7228 21.2298 32.5093 22.9658 33.0632 23.889C34.2755 25.6887 33.8753 27.7845 33.5237 28.6074Z" fill="#0C5947"/>
<path fill-rule="evenodd" clip-rule="evenodd" d="M13.2137 30.21L17.4345 34.3224L17.6533 34.0967L21.6205 30.2313C22.3559 31.1547 22.7956 32.3253 22.7956 33.5988C22.7956 36.5817 20.3837 38.9997 17.4085 38.9997C14.4334 38.9997 12.0215 36.5817 12.0215 33.5988C12.0215 32.3155 12.468 31.1366 13.2137 30.21Z" fill="#04755D"/>
<path fill-rule="evenodd" clip-rule="evenodd" d="M14.3272 31.292L17.4254 34.3107L17.6443 34.0849L20.4074 31.3927C20.8477 32.0119 21.1067 32.7697 21.1067 33.5882C21.1067 35.6792 19.4159 37.3743 17.3302 37.3743C15.2445 37.3743 13.5537 35.6792 13.5537 33.5882C13.5537 32.7248 13.8419 31.9289 14.3272 31.292Z" fill="#0C8F73"/>
<path fill-rule="evenodd" clip-rule="evenodd" d="M14.7386 9.58244L13.4605 10.6761C12.301 9.65297 11.5693 8.15398 11.5693 6.48366C11.5693 3.40038 14.0624 0.900879 17.1379 0.900879C20.2133 0.900879 22.7064 3.40038 22.7064 6.48366C22.7064 8.15778 21.9714 9.65979 20.8073 10.683L19.5246 9.58542C20.4505 8.8679 21.0467 7.74348 21.0467 6.47944C21.0467 4.31267 19.2947 2.55615 17.1335 2.55615C14.9722 2.55615 13.2202 4.31267 13.2202 6.47944C13.2202 7.74174 13.8148 8.8648 14.7386 9.58244Z" fill="#18B38F"/>
<path fill-rule="evenodd" clip-rule="evenodd" d="M21.0463 6.47944C21.0463 7.74386 20.4496 8.86858 19.5232 9.58606L17.112 7.52268L17.0226 7.62768L14.7381 9.5825C13.8144 8.86485 13.2197 7.74177 13.2197 6.47944C13.2197 4.31267 14.9718 2.55615 17.133 2.55615C19.2942 2.55615 21.0463 4.31267 21.0463 6.47944Z" fill="#0AD0A2"/>
<path fill-rule="evenodd" clip-rule="evenodd" d="M12.7017 9.87736L13.9016 8.7873C13.29 8.03375 12.4783 6.01312 14.1241 3.95899C14.5096 3.39068 15.7937 2.32966 17.846 2.632C18.175 2.67637 19.0052 2.92406 19.6937 3.55994L20.9353 2.38424C19.9418 1.46677 18.6155 0.906034 17.1583 0.904967C14.0754 0.902709 11.5743 3.4065 11.5721 6.49734C11.5712 7.76681 11.9919 8.93787 12.7017 9.87736Z" fill="black" fill-opacity="0.5"/>
<path d="M17.4476 21.0002L21.5884 24.7563L22.1669 24.4923V23.3272L19.0514 20.5507L17.3818 20.2754L17.4476 21.0002Z" fill="#04755D"/>
<path d="M20.0159 25.0857L17.1195 28.051L16.3564 27.7146L17.3455 26.6238L18.4829 25.5331L20.0159 24.5415V25.0857Z" fill="#04755D"/>
<path d="M16.79 21.1321L13.3064 24.6246L12.9621 24.2913L12.7148 24.0434L14.8413 21.8372L16.9214 20.3413L16.79 21.1321Z" fill="#04755D"/>
<path d="M18.1367 28.0124V27.5662L25.2826 23.5999L26.0986 23.5503L26.1233 24.0213L20.189 29.9708L18.1367 28.0124Z" fill="#04755D"/>
<path d="M8.24609 24.0459V23.4014H8.76534L17.7657 29.9458L19.5707 30.1441V30.6647L17.6173 32.747L8.24609 24.0459Z" fill="#04755D"/>
<path d="M9.08789 16.4351V16.088L11.8078 15.8649L17.0497 11.8242L24.1709 16.1128L25.6297 16.088V16.4351L23.1076 19.1123L17.2228 14.2536L11.6594 19.1123L9.08789 16.4351Z" fill="#04755D"/>
<path d="M16.9755 9.07324L9.08789 16.0887L11.6594 18.6916L17.2475 13.8328L23.0335 18.6916L25.6297 16.0887L16.9755 9.07324Z" fill="#0AD0A2"/>
<path d="M16.9497 15.7412L8.24609 23.4012L17.5926 32.1271L19.5707 30.1192L16.9497 27.6154L20.0405 24.5415L17.8893 22.6079L14.7985 25.5579L13.1419 24.0953C14.4112 22.831 16.9222 20.3014 16.9222 20.3411C16.9222 20.3807 16.9497 17.2947 16.9497 15.7412Z" fill="#0C8F73"/>
<path d="M17.3822 20.2752L17.3457 15.7412L26.1235 23.5499L20.2139 29.4994L18.1369 27.5658L21.7222 24.1697L17.3822 20.2752Z" fill="#0C8F73"/>
<path d="M56.0359 23.708H49.155L48.0164 27H44.3779L50.5905 9.69868H54.625L60.8377 27H57.1745L56.0359 23.708ZM55.0953 20.9359L52.5954 13.7084L50.0955 20.9359H55.0953ZM76.1049 13.2877V27H72.615V25.2674C72.1694 25.8614 71.5836 26.3317 70.8576 26.6782C70.1481 27.0083 69.3725 27.1733 68.531 27.1733C67.4584 27.1733 66.5096 26.9505 65.6845 26.505C64.8595 26.0429 64.2077 25.3747 63.7292 24.5001C63.2671 23.609 63.0361 22.553 63.0361 21.3319V13.2877H66.5013V20.8369C66.5013 21.9259 66.7736 22.7675 67.3181 23.3615C67.8627 23.9391 68.6052 24.2278 69.5458 24.2278C70.5028 24.2278 71.2536 23.9391 71.7982 23.3615C72.3427 22.7675 72.615 21.9259 72.615 20.8369V13.2877H76.1049ZM78.6329 20.0943C78.6329 18.7082 78.9051 17.4789 79.4497 16.4063C80.0107 15.3338 80.7697 14.5087 81.7268 13.9312C82.6839 13.3537 83.7482 13.0649 84.9197 13.0649C85.8108 13.0649 86.6606 13.2629 87.4692 13.6589C88.2777 14.0385 88.9212 14.55 89.3998 15.1935V8.68387H92.9145V27H89.3998V24.9704C88.9707 25.6469 88.3685 26.1915 87.5929 26.604C86.8174 27.0165 85.9181 27.2228 84.895 27.2228C83.7399 27.2228 82.6839 26.9257 81.7268 26.3317C80.7697 25.7377 80.0107 24.9044 79.4497 23.8318C78.9051 22.7427 78.6329 21.4969 78.6329 20.0943ZM89.4245 20.1438C89.4245 19.3023 89.2595 18.5845 88.9295 17.9904C88.5995 17.3799 88.1539 16.9179 87.5929 16.6044C87.0319 16.2743 86.4296 16.1093 85.7861 16.1093C85.1425 16.1093 84.5485 16.2661 84.0039 16.5796C83.4594 16.8931 83.0139 17.3552 82.6674 17.9657C82.3373 18.5597 82.1723 19.2693 82.1723 20.0943C82.1723 20.9194 82.3373 21.6454 82.6674 22.2725C83.0139 22.883 83.4594 23.3533 84.0039 23.6833C84.565 24.0133 85.159 24.1783 85.7861 24.1783C86.4296 24.1783 87.0319 24.0216 87.5929 23.708C88.1539 23.378 88.5995 22.916 88.9295 22.322C89.2595 21.7114 89.4245 20.9854 89.4245 20.1438ZM98.0562 11.6541C97.4457 11.6541 96.9342 11.4643 96.5216 11.0848C96.1256 10.6887 95.9276 10.202 95.9276 9.62443C95.9276 9.0469 96.1256 8.56837 96.5216 8.18884C96.9342 7.79282 97.4457 7.59481 98.0562 7.59481C98.6668 7.59481 99.1701 7.79282 99.5661 8.18884C99.9786 8.56837 100.185 9.0469 100.185 9.62443C100.185 10.202 99.9786 10.6887 99.5661 11.0848C99.1701 11.4643 98.6668 11.6541 98.0562 11.6541ZM99.7641 13.2877V27H96.2989V13.2877H99.7641ZM107.222 16.1341V22.7675C107.222 23.2295 107.329 23.5678 107.544 23.7823C107.775 23.9803 108.155 24.0793 108.683 24.0793H110.291V27H108.113C105.193 27 103.732 25.5809 103.732 22.7427V16.1341H102.099V13.2877H103.732V9.8967H107.222V13.2877H110.291V16.1341H107.222ZM124.721 9.72344C126.536 9.72344 128.128 10.0782 129.498 10.7878C130.884 11.4973 131.948 12.5121 132.691 13.8322C133.45 15.1358 133.83 16.6539 133.83 18.3865C133.83 20.1191 133.45 21.6372 132.691 22.9408C131.948 24.2278 130.884 25.2261 129.498 25.9357C128.128 26.6452 126.536 27 124.721 27H118.682V9.72344H124.721ZM124.597 24.0546C126.412 24.0546 127.815 23.5595 128.805 22.5695C129.795 21.5794 130.29 20.1851 130.29 18.3865C130.29 16.5879 129.795 15.1853 128.805 14.1787C127.815 13.1556 126.412 12.6441 124.597 12.6441H122.147V24.0546H124.597ZM149.17 19.8468C149.17 20.3418 149.137 20.7874 149.071 21.1834H139.047C139.13 22.1735 139.476 22.949 140.087 23.51C140.697 24.0711 141.448 24.3516 142.339 24.3516C143.626 24.3516 144.542 23.7988 145.086 22.6932H148.824C148.428 24.0133 147.669 25.1024 146.547 25.9604C145.425 26.802 144.047 27.2228 142.413 27.2228C141.093 27.2228 139.905 26.934 138.849 26.3565C137.809 25.7624 136.993 24.9291 136.399 23.8566C135.821 22.784 135.532 21.5464 135.532 20.1438C135.532 18.7247 135.821 17.4789 136.399 16.4063C136.976 15.3338 137.785 14.5087 138.824 13.9312C139.864 13.3537 141.06 13.0649 142.413 13.0649C143.717 13.0649 144.88 13.3454 145.903 13.9064C146.943 14.4675 147.743 15.2678 148.304 16.3073C148.882 17.3304 149.17 18.5102 149.17 19.8468ZM145.581 18.8567C145.565 17.9657 145.243 17.2562 144.616 16.7281C143.989 16.1836 143.222 15.9113 142.314 15.9113C141.456 15.9113 140.73 16.1753 140.136 16.7034C139.559 17.2149 139.204 17.9327 139.072 18.8567H145.581ZM162.368 9.72344V12.5204H155.165V16.9509H160.685V19.6983H155.165V27H151.7V9.72344H162.368ZM166.582 11.6541C165.972 11.6541 165.46 11.4643 165.048 11.0848C164.652 10.6887 164.454 10.202 164.454 9.62443C164.454 9.0469 164.652 8.56837 165.048 8.18884C165.46 7.79282 165.972 7.59481 166.582 7.59481C167.193 7.59481 167.696 7.79282 168.092 8.18884C168.505 8.56837 168.711 9.0469 168.711 9.62443C168.711 10.202 168.505 10.6887 168.092 11.0848C167.696 11.4643 167.193 11.6541 166.582 11.6541ZM168.29 13.2877V27H164.825V13.2877H168.29Z" fill="black"/>
</svg>
