<svg width="171" height="39" viewBox="0 0 171 39" fill="none" xmlns="http://www.w3.org/2000/svg">
<path d="M10.4451 20.1529L10.5816 19.301L0.447264 13.2784C0.585232 18.6344 4.46563 19.8502 6.38859 19.7887L8.4768 21.8128L10.4451 20.1529Z" fill="#C0C0C0"/>
<path d="M10.449 20.1558L10.5855 19.3039L0.45117 13.2813C0.589139 18.6373 4.46954 19.8532 6.3925 19.7916L8.48071 21.8158L10.449 20.1558Z" fill="#04755D"/>
<path fill-rule="evenodd" clip-rule="evenodd" d="M0.402932 13.251C0.252352 16.3025 2.60612 18.8981 5.66022 19.0486C5.91021 19.0609 6.15714 19.0564 6.39992 19.0362L8.57917 21.1902L10.5891 19.304L9.08863 17.754L7.91579 16.5356C7.73997 16.3108 7.51892 15.7591 8.04127 15.3513L11.2423 12.796L11.4054 12.6765C11.0138 10.1335 8.87775 8.1299 6.20552 7.99826C3.15142 7.84781 0.553511 10.1995 0.402932 13.251Z" fill="#18B38F"/>
<path fill-rule="evenodd" clip-rule="evenodd" d="M9.74361 13.9832C9.75279 13.9017 9.75947 13.8193 9.76357 13.7363C9.86945 11.5907 8.21444 9.76559 6.067 9.6598C3.91956 9.55402 2.09288 11.2076 1.987 13.3532C1.88113 15.4988 3.53614 17.3239 5.68358 17.4296C6.58294 17.474 7.42605 17.2097 8.11004 16.7299L8.03232 16.6471C7.43508 16.0039 7.80251 15.4991 8.06089 15.3271L9.74361 13.9832Z" fill="#0AD0A2"/>
<path d="M9.73913 14.0003L11.4075 12.6758C10.9964 10.3342 9.36119 9.01962 8.59496 8.65507C6.57422 7.6104 4.62956 8.02939 3.90983 8.36946L4.71583 9.82198C6.33231 9.37546 7.59824 9.95585 8.02915 10.3019C9.6873 11.3823 9.86003 13.2177 9.73913 14.0003Z" fill="black" fill-opacity="0.5"/>
<path d="M23.9619 20.2527L23.8495 19.3973L34.15 13.663C33.8607 19.013 29.9475 20.1188 28.027 20.003L25.8825 21.9675L23.9619 20.2527Z" fill="#04755D"/>
<path fill-rule="evenodd" clip-rule="evenodd" d="M34.1985 13.6339C34.2628 16.6884 31.8366 19.2166 28.7794 19.2809C28.5293 19.2861 28.2826 19.2747 28.0406 19.2477L25.8013 21.3394L23.8454 19.3972L25.4504 17.8304L25.4507 17.8306L26.5973 16.7049C26.7794 16.4851 27.016 15.9399 26.5053 15.5174L23.3778 12.8729L23.2169 12.7478C23.6807 10.2176 25.8723 8.27576 28.5466 8.21957C31.6038 8.15534 34.1342 10.5794 34.1985 13.6339Z" fill="#18B38F"/>
<path fill-rule="evenodd" clip-rule="evenodd" d="M24.8437 14.1029C24.8368 14.0211 24.8325 13.9387 24.8308 13.8555C24.7856 11.7078 26.4915 9.93016 28.6411 9.88499C30.7906 9.83983 32.5698 11.5443 32.615 13.692C32.6602 15.8397 30.9543 17.6174 28.8047 17.6626C27.9045 17.6815 27.0692 17.3935 26.3991 16.8947L26.4792 16.8141C27.0943 16.188 26.7413 15.673 26.4879 15.4938L24.8437 14.1029Z" fill="#0AD0A2"/>
<path d="M24.8481 14.1201L23.2179 12.749C23.6949 10.4199 25.3667 9.15204 26.1429 8.80924C28.1923 7.822 30.1244 8.29568 30.8342 8.65593L29.9875 10.0851C28.3843 9.59318 27.1024 10.1376 26.6619 10.4713C24.9739 11.5045 24.7494 13.3343 24.8481 14.1201Z" fill="black" fill-opacity="0.5"/>
<path fill-rule="evenodd" clip-rule="evenodd" d="M5.31782 31.7298C2.51119 31.6124 0.331199 29.244 0.448681 26.4398C0.566162 23.6356 2.93663 21.4575 5.74326 21.5748C6.54995 21.6086 7.30487 21.8283 7.96835 22.1908L6.92915 23.0453C6.77909 23.2474 6.62686 23.8157 7.21842 24.4721L10.4102 28.0905C9.76659 30.2764 7.69921 31.8294 5.31782 31.7298Z" fill="#04755D"/>
<path d="M7.8992 22.938L7.92906 22.2253L6.14996 22.957L6.6052 24.4301L8.70142 26.268C6.94148 24.3258 6.99771 23.5758 7.24581 23.4436L7.8992 22.938Z" fill="#036853"/>
<path fill-rule="evenodd" clip-rule="evenodd" d="M8.79431 26.3342L7.13185 24.4525C6.97864 24.2789 6.75942 23.9248 6.75054 23.5567C6.38312 23.3998 5.98156 23.3055 5.55867 23.2878C3.68558 23.2095 2.10359 24.6631 2.02518 26.5346C1.94678 28.4061 3.40166 29.9867 5.27474 30.065C7.14783 30.1434 8.72983 28.6897 8.80823 26.8183C8.8151 26.6544 8.81021 26.4928 8.79431 26.3342Z" fill="#0C8F73"/>
<path d="M0.779976 28.6085L2.26685 27.937C1.98635 27.3383 2.00775 26.5235 2.05351 26.191C2.31813 24.4649 3.67583 23.6487 4.32161 23.4564C5.36381 23.1026 6.37749 23.3768 6.75406 23.5581C6.74534 23.3261 6.84527 23.1364 6.89633 23.0706L7.92933 22.2288C7.51225 21.935 6.67781 21.7367 6.31272 21.6742C3.58898 21.2313 1.79673 22.967 1.24108 23.8902C0.0250441 25.6896 0.426996 27.7855 0.779976 28.6085Z" fill="#0C5947"/>
<path fill-rule="evenodd" clip-rule="evenodd" d="M29.1069 31.7298C31.9135 31.6124 34.0935 29.244 33.976 26.4398C33.8585 23.6356 31.4881 21.4575 28.6814 21.5748C27.8746 21.6086 27.1196 21.8284 26.456 22.191L27.4955 23.0458C27.6456 23.2479 27.7978 23.8162 27.2063 24.4726L24.0146 28.0909C24.6583 30.2766 26.7256 31.8294 29.1069 31.7298Z" fill="#04755D"/>
<path d="M26.5236 22.938L26.4938 22.2253L28.2729 22.957L27.8177 24.4301L25.7214 26.268C27.4814 24.3258 27.4251 23.5758 27.177 23.4436L26.5236 22.938Z" fill="#036853"/>
<path fill-rule="evenodd" clip-rule="evenodd" d="M25.6266 26.3345L27.2892 24.4526C27.4425 24.279 27.6617 23.9248 27.6705 23.5566C28.0379 23.3998 28.4394 23.3055 28.8622 23.2878C30.7353 23.2095 32.3173 24.6631 32.3957 26.5346C32.4741 28.4061 31.0192 29.9867 29.1462 30.065C27.2731 30.1434 25.6911 28.6897 25.6127 26.8183C25.6058 26.6545 25.6107 26.493 25.6266 26.3345Z" fill="#0C8F73"/>
<path d="M33.6426 28.6085L32.1558 27.9371C32.4363 27.3384 32.4149 26.5236 32.3692 26.191C32.1046 24.465 30.7469 23.6488 30.1012 23.4565C29.059 23.1027 28.0453 23.377 27.6687 23.5584C27.6775 23.3264 27.5775 23.1367 27.5265 23.0708L26.4935 22.229C26.9106 21.9352 27.7451 21.7369 28.1101 21.6744C30.8339 21.2314 32.6261 22.967 33.1817 23.8902C34.3977 25.6896 33.9956 27.7855 33.6426 28.6085Z" fill="#0C5947"/>
<path fill-rule="evenodd" clip-rule="evenodd" d="M13.2638 30.21L17.4991 34.3225L17.7251 34.0901L21.6991 30.2313C22.4372 31.1547 22.8784 32.3253 22.8784 33.5989C22.8784 36.5817 20.4583 38.9998 17.4729 38.9998C14.4875 38.9998 12.0674 36.5817 12.0674 33.5989C12.0674 32.3155 12.5154 31.1366 13.2638 30.21Z" fill="#04755D"/>
<path fill-rule="evenodd" clip-rule="evenodd" d="M14.3815 31.2925L17.489 34.3099L17.7065 34.0863L20.4816 31.3916C20.924 32.0111 21.1843 32.7695 21.1843 33.5885C21.1843 35.6796 19.4878 37.3747 17.3949 37.3747C15.3021 37.3747 13.6055 35.6796 13.6055 33.5885C13.6055 32.7252 13.8947 31.9294 14.3815 31.2925Z" fill="#0C8F73"/>
<path fill-rule="evenodd" clip-rule="evenodd" d="M14.7915 9.58234L13.509 10.676C12.3455 9.65293 11.6113 8.15395 11.6113 6.48364C11.6113 3.40037 14.113 0.900879 17.1989 0.900879C20.2849 0.900879 22.7865 3.40037 22.7865 6.48364C22.7865 8.15794 22.0488 9.6601 20.8805 10.6834L19.5935 9.58579C20.5229 8.8683 21.1214 7.7437 21.1214 6.47943C21.1214 4.31266 19.3633 2.55615 17.1947 2.55615C15.0261 2.55615 13.268 4.31266 13.268 6.47943C13.268 7.74167 13.8646 8.86469 14.7915 9.58234Z" fill="#18B38F"/>
<path fill-rule="evenodd" clip-rule="evenodd" d="M21.1219 6.47992C21.1219 7.74471 20.5229 8.86972 19.5928 9.58717L17.1726 7.52321L17.08 7.63155L14.792 9.5828C13.8651 8.86515 13.2686 7.74214 13.2686 6.47992C13.2686 4.31315 15.0266 2.55664 17.1952 2.55664C19.3639 2.55664 21.1219 4.31315 21.1219 6.47992Z" fill="#0AD0A2"/>
<path fill-rule="evenodd" clip-rule="evenodd" d="M12.7483 9.87829L13.9528 8.78775C13.3391 8.03421 12.5246 6.01358 14.1761 3.95946C14.5629 3.39116 15.8514 2.33014 17.9107 2.63248C18.2409 2.67685 19.0739 2.92454 19.7648 3.56042L21.0102 2.38506C20.0133 1.4671 18.682 0.906034 17.2194 0.904967C14.1259 0.902709 11.6163 3.40649 11.6141 6.49732C11.6131 7.76722 12.0356 8.93864 12.7483 9.87829Z" fill="black" fill-opacity="0.5"/>
<path d="M17.5132 21.0012L21.6683 24.7573L22.2487 24.4932V23.3281L19.1226 20.5517L17.4473 20.2764L17.5132 21.0012Z" fill="#04755D"/>
<path d="M20.089 25.0866L17.1827 28.052L16.417 27.7155L17.4094 26.6248L18.5507 25.5341L20.089 24.5425V25.0866Z" fill="#04755D"/>
<path d="M16.8537 21.1325L13.3582 24.625L13.0128 24.2918L12.7646 24.0439L14.8984 21.8376L16.9856 20.3418L16.8537 21.1325Z" fill="#04755D"/>
<path d="M18.2041 28.0134V27.5672L25.3745 23.6008L26.1932 23.5513L26.218 24.0223L20.2634 29.9717L18.2041 28.0134Z" fill="#04755D"/>
<path d="M8.2793 24.0464V23.4019H8.80033L17.8315 29.9463L19.6427 30.1446V30.6652L17.6826 32.7475L8.2793 24.0464Z" fill="#04755D"/>
<path d="M9.12402 16.4355V16.0885L11.8532 15.8654L17.1131 11.8247L24.2587 16.1133L25.7225 16.0885V16.4355L23.1918 19.1128L17.2868 14.2541L11.7044 19.1128L9.12402 16.4355Z" fill="#04755D"/>
<path d="M17.0387 9.07373L9.12402 16.0891L11.7044 18.692L17.3116 13.8333L23.1174 18.692L25.7225 16.0891L17.0387 9.07373Z" fill="#0AD0A2"/>
<path d="M17.0127 15.7422L8.2793 23.4021L17.6578 32.128L19.6427 30.1201L17.0127 27.6163L20.1141 24.5424L17.9556 22.6089L14.8542 25.5588L13.1919 24.0962C14.4655 22.832 16.9851 20.3024 16.9851 20.342C16.9851 20.3817 17.0127 17.2957 17.0127 15.7422Z" fill="#0C8F73"/>
<path d="M17.4467 20.2761L17.4102 15.7422L26.218 23.5509L20.2882 29.5003L18.2041 27.5668L21.8017 24.1706L17.4467 20.2761Z" fill="#0C8F73"/>
<path d="M56.2482 23.6928H49.3353L48.1915 27H44.5362L50.7776 9.61852H54.8308L61.0722 27H57.392L56.2482 23.6928ZM55.3032 20.9078L52.7918 13.6468L50.2803 20.9078H55.3032ZM76.4102 13.2241V27H72.9041V25.2594C72.4565 25.8562 71.868 26.3286 71.1385 26.6767C70.4257 27.0083 69.6466 27.1741 68.8011 27.1741C67.7236 27.1741 66.7704 26.9503 65.9415 26.5027C65.1126 26.0385 64.4578 25.3671 63.9771 24.4885C63.5129 23.5933 63.2808 22.5324 63.2808 21.3056V13.2241H66.7621V20.8083C66.7621 21.9024 67.0356 22.7479 67.5827 23.3447C68.1297 23.9249 68.8757 24.215 69.8206 24.215C70.7821 24.215 71.5364 23.9249 72.0835 23.3447C72.6305 22.7479 72.9041 21.9024 72.9041 20.8083V13.2241H76.4102ZM78.9498 20.0623C78.9498 18.6698 79.2234 17.4348 79.7704 16.3573C80.3341 15.2797 81.0966 14.4509 82.0581 13.8706C83.0196 13.2904 84.0889 13.0003 85.2659 13.0003C86.161 13.0003 87.0148 13.1993 87.8271 13.5971C88.6394 13.9784 89.2859 14.4923 89.7666 15.1388V8.599H93.2976V27H89.7666V24.961C89.3356 25.6406 88.7306 26.1877 87.9514 26.6021C87.1723 27.0166 86.2688 27.2238 85.241 27.2238C84.0806 27.2238 83.0196 26.9254 82.0581 26.3286C81.0966 25.7318 80.3341 24.8947 79.7704 23.8171C79.2234 22.723 78.9498 21.4714 78.9498 20.0623ZM89.7915 20.1121C89.7915 19.2666 89.6257 18.5455 89.2942 17.9487C88.9626 17.3353 88.515 16.8712 87.9514 16.5562C87.3878 16.2246 86.7827 16.0589 86.1362 16.0589C85.4897 16.0589 84.8929 16.2164 84.3458 16.5313C83.7988 16.8463 83.3512 17.3105 83.003 17.9238C82.6715 18.5206 82.5057 19.2335 82.5057 20.0623C82.5057 20.8912 82.6715 21.6206 83.003 22.2506C83.3512 22.8639 83.7988 23.3364 84.3458 23.6679C84.9094 23.9995 85.5062 24.1653 86.1362 24.1653C86.7827 24.1653 87.3878 24.0078 87.9514 23.6928C88.515 23.3612 88.9626 22.8971 89.2942 22.3003C89.6257 21.6869 89.7915 20.9575 89.7915 20.1121ZM98.4632 11.5829C97.8498 11.5829 97.3359 11.3923 96.9215 11.011C96.5237 10.6132 96.3247 10.1241 96.3247 9.54392C96.3247 8.96371 96.5237 8.48296 96.9215 8.10168C97.3359 7.70382 97.8498 7.50489 98.4632 7.50489C99.0766 7.50489 99.5822 7.70382 99.9801 8.10168C100.394 8.48296 100.602 8.96371 100.602 9.54392C100.602 10.1241 100.394 10.6132 99.9801 11.011C99.5822 11.3923 99.0766 11.5829 98.4632 11.5829ZM100.179 13.2241V27H96.6977V13.2241H100.179ZM107.672 16.0837V22.7479C107.672 23.212 107.779 23.5519 107.995 23.7674C108.227 23.9663 108.608 24.0658 109.139 24.0658H110.755V27H108.567C105.633 27 104.166 25.5743 104.166 22.723V16.0837H102.524V13.2241H104.166V9.81745H107.672V13.2241H110.755V16.0837H107.672ZM125.252 9.64338C127.075 9.64338 128.675 9.9998 130.051 10.7126C131.443 11.4255 132.512 12.445 133.258 13.7712C134.021 15.0808 134.402 16.6059 134.402 18.3466C134.402 20.0872 134.021 21.6123 133.258 22.9219C132.512 24.215 131.443 25.2179 130.051 25.9308C128.675 26.6436 127.075 27 125.252 27H119.184V9.64338H125.252ZM125.127 24.0409C126.951 24.0409 128.36 23.5436 129.354 22.5489C130.349 21.5543 130.846 20.1535 130.846 18.3466C130.846 16.5396 130.349 15.1305 129.354 14.1193C128.36 13.0915 126.951 12.5776 125.127 12.5776H122.665V24.0409H125.127ZM149.814 19.8137C149.814 20.311 149.781 20.7586 149.715 21.1564H139.644C139.727 22.1511 140.075 22.9302 140.688 23.4939C141.302 24.0575 142.056 24.3393 142.951 24.3393C144.244 24.3393 145.164 23.784 145.711 22.6733H149.466C149.068 23.9995 148.306 25.0936 147.178 25.9556C146.051 26.8011 144.667 27.2238 143.026 27.2238C141.7 27.2238 140.506 26.9337 139.445 26.3535C138.401 25.7567 137.58 24.9195 136.983 23.842C136.403 22.7645 136.113 21.5211 136.113 20.1121C136.113 18.6864 136.403 17.4348 136.983 16.3573C137.564 15.2797 138.376 14.4509 139.42 13.8706C140.465 13.2904 141.666 13.0003 143.026 13.0003C144.335 13.0003 145.504 13.2821 146.532 13.8458C147.576 14.4094 148.38 15.2134 148.944 16.2578C149.524 17.2856 149.814 18.4709 149.814 19.8137ZM146.209 18.819C146.192 17.9238 145.869 17.211 145.239 16.6805C144.609 16.1335 143.838 15.8599 142.926 15.8599C142.064 15.8599 141.335 16.1252 140.738 16.6557C140.158 17.1696 139.801 17.8907 139.669 18.819H146.209ZM163.073 9.64338V12.4533H155.837V16.9043H161.382V19.6645H155.837V27H152.355V9.64338H163.073ZM167.307 11.5829C166.693 11.5829 166.179 11.3923 165.765 11.011C165.367 10.6132 165.168 10.1241 165.168 9.54392C165.168 8.96371 165.367 8.48296 165.765 8.10168C166.179 7.70382 166.693 7.50489 167.307 7.50489C167.92 7.50489 168.426 7.70382 168.824 8.10168C169.238 8.48296 169.445 8.96371 169.445 9.54392C169.445 10.1241 169.238 10.6132 168.824 11.011C168.426 11.3923 167.92 11.5829 167.307 11.5829ZM169.022 13.2241V27H165.541V13.2241H169.022Z" fill="white"/>
</svg>
