<svg width="20" height="20" viewBox="0 0 20 20" fill="none" xmlns="http://www.w3.org/2000/svg">
<g clip-path="url(#clip0_3207_531)">
<mask id="mask0_3207_531" style="mask-type:luminance" maskUnits="userSpaceOnUse" x="0" y="0" width="20" height="20">
<path d="M10 20C4.4768 20 0 15.5232 0 10C0 4.4768 4.4768 0 10 0C15.5232 0 20 4.4768 20 10C20 15.5232 15.5232 20 10 20Z" fill="white"/>
</mask>
<g mask="url(#mask0_3207_531)">
<path fill-rule="evenodd" clip-rule="evenodd" d="M9.99947 10.0008L-4.14453 9.91355L-4.13173 9.39355L9.99947 10.0008Z" fill="#FEFEFF"/>
<path fill-rule="evenodd" clip-rule="evenodd" d="M9.99883 10.0003L-4.13477 9.4795L-4.11317 9.0459L9.99883 10.0003Z" fill="#FDFEFF"/>
<path fill-rule="evenodd" clip-rule="evenodd" d="M9.99961 10.0002L-4.11719 9.133L-4.08519 8.7002L9.99961 10.0002Z" fill="#FCFDFF"/>
<path fill-rule="evenodd" clip-rule="evenodd" d="M9.9994 10.0001L-4.0918 8.78649L-4.0494 8.35449L9.9994 10.0001Z" fill="#FBFCFF"/>
<path fill-rule="evenodd" clip-rule="evenodd" d="M10.0002 10.0003L-4.05664 8.44114L-4.00384 8.01074L10.0002 10.0003Z" fill="#FAFCFF"/>
<path fill-rule="evenodd" clip-rule="evenodd" d="M9.99878 10.0008L-4.01562 8.09757L-3.95243 7.66797L9.99878 10.0008Z" fill="#F9FBFF"/>
<path fill-rule="evenodd" clip-rule="evenodd" d="M10.0003 10.0006L-3.96289 7.75337L-3.88929 7.32617L10.0003 10.0006Z" fill="#F8FAFF"/>
<path fill-rule="evenodd" clip-rule="evenodd" d="M9.9997 10.0007L-3.9043 7.41193L-3.8203 6.98633L9.9997 10.0007Z" fill="#F7FAFF"/>
<path fill-rule="evenodd" clip-rule="evenodd" d="M9.99891 10.0003L-3.83789 7.07146L-3.74269 6.64746L9.99891 10.0003Z" fill="#F6F9FF"/>
<path fill-rule="evenodd" clip-rule="evenodd" d="M9.99908 10.0003L-3.76172 6.73232L-3.65612 6.31152L9.99908 10.0003Z" fill="#F5F8FF"/>
<path fill-rule="evenodd" clip-rule="evenodd" d="M10.0002 10.0007L-3.67578 6.39594L-3.56058 5.97754L10.0002 10.0007Z" fill="#F4F8FF"/>
<path fill-rule="evenodd" clip-rule="evenodd" d="M10 10.0009L-3.58398 6.06168L-3.45758 5.64648L10 10.0009Z" fill="#F3F7FF"/>
<path fill-rule="evenodd" clip-rule="evenodd" d="M9.99883 10.0006L-3.48438 5.72938L-3.34757 5.31738L9.99883 10.0006Z" fill="#F2F6FF"/>
<path fill-rule="evenodd" clip-rule="evenodd" d="M9.9994 10.0008L-3.375 5.40001L-3.2286 4.99121L9.9994 10.0008Z" fill="#F1F6FF"/>
<path fill-rule="evenodd" clip-rule="evenodd" d="M9.99899 10.0008L-3.25781 5.07277L-3.10181 4.66797L9.99899 10.0008Z" fill="#F0F5FF"/>
<path fill-rule="evenodd" clip-rule="evenodd" d="M9.99919 10.0005L-3.13281 4.74846L-2.96721 4.34766L9.99919 10.0005Z" fill="#EFF4FF"/>
<path fill-rule="evenodd" clip-rule="evenodd" d="M9.9992 10L-3 4.42725L-2.824 4.03125L9.9992 10Z" fill="#EEF3FF"/>
<path fill-rule="evenodd" clip-rule="evenodd" d="M9.99903 10.0003L-2.85938 4.11075L-2.67378 3.71875L9.99903 10.0003Z" fill="#EDF3FF"/>
<path fill-rule="evenodd" clip-rule="evenodd" d="M9.99946 10.0004L-2.71094 3.79718L-2.51574 3.40918L9.99946 10.0004Z" fill="#ECF2FF"/>
<path fill-rule="evenodd" clip-rule="evenodd" d="M9.99971 10.0005L-2.55469 3.48689L-2.34989 3.10449L9.99971 10.0005Z" fill="#EBF1FF"/>
<path fill-rule="evenodd" clip-rule="evenodd" d="M9.99977 10.0003L-2.39062 3.18113L-2.17703 2.80273L9.99977 10.0003Z" fill="#EAF1FF"/>
<path fill-rule="evenodd" clip-rule="evenodd" d="M9.9985 10.0004L-2.2207 2.87884L-1.9975 2.50684L9.9985 10.0004Z" fill="#E9F0FF"/>
<path fill-rule="evenodd" clip-rule="evenodd" d="M9.99978 10.0003L-2.04102 2.58107L-1.80902 2.21387L9.99978 10.0003Z" fill="#E8EFFF"/>
<path fill-rule="evenodd" clip-rule="evenodd" d="M9.99973 10.0004L-1.85547 2.28756L-1.61387 1.92676L9.99973 10.0004Z" fill="#E7EFFF"/>
<path fill-rule="evenodd" clip-rule="evenodd" d="M10.0003 10.0005L-1.66211 1.99893L-1.41251 1.64453L10.0003 10.0005Z" fill="#E6EEFF"/>
<path fill-rule="evenodd" clip-rule="evenodd" d="M9.99951 10.0008L-1.46289 1.71599L-1.20449 1.36719L9.99951 10.0008Z" fill="#E5EDFF"/>
<path fill-rule="evenodd" clip-rule="evenodd" d="M10.0001 10.0002L-1.25586 1.43615L-0.988659 1.09375L10.0001 10.0002Z" fill="#E4EDFF"/>
<path fill-rule="evenodd" clip-rule="evenodd" d="M9.99943 10.0009L-1.04297 1.16333L-0.767769 0.828125L9.99943 10.0009Z" fill="#E3ECFF"/>
<path fill-rule="evenodd" clip-rule="evenodd" d="M9.99933 10.0008L-0.822266 0.895206L-0.539066 0.566406L9.99933 10.0008Z" fill="#E2EBFF"/>
<path fill-rule="evenodd" clip-rule="evenodd" d="M9.9995 9.99997L-0.595703 0.63117L-0.304503 0.30957L9.9995 9.99997Z" fill="#E1EBFF"/>
<path fill-rule="evenodd" clip-rule="evenodd" d="M9.99912 10.0005L-0.363281 0.374947L-0.0640813 0.0605469L9.99912 10.0005Z" fill="#E0EAFF"/>
<path fill-rule="evenodd" clip-rule="evenodd" d="M10.0002 10.0004L-0.123047 0.123606L0.184153 -0.183594L10.0002 10.0004Z" fill="#DFE9FF"/>
<path fill-rule="evenodd" clip-rule="evenodd" d="M9.99985 10.0007L0.123047 -0.122498L0.436647 -0.420898L9.99985 10.0007Z" fill="#DEE9FF"/>
<path fill-rule="evenodd" clip-rule="evenodd" d="M9.99865 10.0003L0.373047 -0.36212L0.694647 -0.65332L9.99865 10.0003Z" fill="#DDE8FF"/>
<path fill-rule="evenodd" clip-rule="evenodd" d="M9.99966 10.0005L0.630859 -0.59473L0.959659 -0.87793L9.99966 10.0005Z" fill="#DCE7FF"/>
<path fill-rule="evenodd" clip-rule="evenodd" d="M10.0001 10.0001L0.894531 -0.82148L1.22973 -1.09668L10.0001 10.0001Z" fill="#DBE7FF"/>
<path fill-rule="evenodd" clip-rule="evenodd" d="M9.99971 10.0002L1.16211 -1.04219L1.50451 -1.30859L9.99971 10.0002Z" fill="#DAE6FF"/>
<path fill-rule="evenodd" clip-rule="evenodd" d="M9.99955 10.0007L1.43555 -1.25527L1.78435 -1.51367L9.99955 10.0007Z" fill="#D9E5FF"/>
<path fill-rule="evenodd" clip-rule="evenodd" d="M9.99964 10.0001L1.71484 -1.46231L2.06924 -1.71191L9.99964 10.0001Z" fill="#D8E5FF"/>
<path fill-rule="evenodd" clip-rule="evenodd" d="M9.99965 10.0009L1.99805 -1.66154L2.35885 -1.90234L9.99965 10.0009Z" fill="#D7E4FF"/>
<path fill-rule="evenodd" clip-rule="evenodd" d="M9.99991 10.0003L2.28711 -1.85491L2.65431 -2.08691L9.99991 10.0003Z" fill="#D6E3FF"/>
<path fill-rule="evenodd" clip-rule="evenodd" d="M9.99928 10.0003L2.58008 -2.04047L2.95208 -2.26367L9.99928 10.0003Z" fill="#D5E3FF"/>
<path fill-rule="evenodd" clip-rule="evenodd" d="M9.99855 10.0002L2.87695 -2.21902L3.25455 -2.43262L9.99855 10.0002Z" fill="#D4E2FF"/>
<path fill-rule="evenodd" clip-rule="evenodd" d="M9.99889 10.0005L3.17969 -2.38993L3.56209 -2.59473L9.99889 10.0005Z" fill="#D3E1FF"/>
<path fill-rule="evenodd" clip-rule="evenodd" d="M9.99993 10.0008L3.48633 -2.55365L3.87433 -2.74805L9.99993 10.0008Z" fill="#D2E0FF"/>
<path fill-rule="evenodd" clip-rule="evenodd" d="M10.0001 10.0007L3.79688 -2.70973L4.18887 -2.89453L10.0001 10.0007Z" fill="#D1E0FF"/>
<path fill-rule="evenodd" clip-rule="evenodd" d="M9.99898 10.0002L4.10938 -2.85818L4.50618 -3.03418L9.99898 10.0002Z" fill="#D0DFFF"/>
<path fill-rule="evenodd" clip-rule="evenodd" d="M9.99858 10.0006L4.42578 -2.99864L4.82738 -3.16504L9.99858 10.0006Z" fill="#CFDEFF"/>
<path fill-rule="evenodd" clip-rule="evenodd" d="M10 10.0009L4.74805 -3.13111L5.15365 -3.28711L10 10.0009Z" fill="#CEDEFF"/>
<path fill-rule="evenodd" clip-rule="evenodd" d="M10.0003 10.0009L5.07227 -3.25594L5.48107 -3.40234L10.0003 10.0009Z" fill="#CDDDFF"/>
<path fill-rule="evenodd" clip-rule="evenodd" d="M9.99924 10.0008L5.39844 -3.37359L5.81044 -3.50879L9.99924 10.0008Z" fill="#CCDCFF"/>
<path fill-rule="evenodd" clip-rule="evenodd" d="M9.99972 10.0004L5.72852 -3.4828L6.14372 -3.6084L9.99972 10.0004Z" fill="#CBDCFF"/>
<path fill-rule="evenodd" clip-rule="evenodd" d="M9.99975 9.99998L6.06055 -3.58402L6.47895 -3.69922L9.99975 9.99998Z" fill="#CADBFF"/>
<path fill-rule="evenodd" clip-rule="evenodd" d="M9.99933 10.0004L6.39453 -3.67565L6.81533 -3.78125L9.99933 10.0004Z" fill="#C9DAFF"/>
<path fill-rule="evenodd" clip-rule="evenodd" d="M10.0004 10.0007L6.73242 -3.76009L7.15562 -3.85449L10.0004 10.0007Z" fill="#C8DAFF"/>
<path fill-rule="evenodd" clip-rule="evenodd" d="M9.99911 10.0009L7.07031 -3.83592L7.49511 -3.91992L9.99911 10.0009Z" fill="#C7D9FF"/>
<path fill-rule="evenodd" clip-rule="evenodd" d="M9.99896 10.0009L7.41016 -3.90314L7.83736 -3.97754L9.99896 10.0009Z" fill="#C6D8FF"/>
<path fill-rule="evenodd" clip-rule="evenodd" d="M9.99915 10.0008L7.75195 -3.96237L8.18155 -4.02637L9.99915 10.0008Z" fill="#C5D8FF"/>
<path fill-rule="evenodd" clip-rule="evenodd" d="M9.9989 10.0008L8.0957 -4.01361L8.5261 -4.06641L9.9989 10.0008Z" fill="#C4D7FF"/>
<path fill-rule="evenodd" clip-rule="evenodd" d="M9.99865 10.0006L8.43945 -4.05623L8.87145 -4.09863L9.99865 10.0006Z" fill="#C3D6FF"/>
<path fill-rule="evenodd" clip-rule="evenodd" d="M9.99876 10.0002L8.78516 -4.09105L9.21796 -4.12305L9.99876 10.0002Z" fill="#C2D6FF"/>
<path fill-rule="evenodd" clip-rule="evenodd" d="M10 10.0009L9.13281 -4.11592L9.56641 -4.13672L10 10.0009Z" fill="#C1D5FF"/>
<path fill-rule="evenodd" clip-rule="evenodd" d="M9.99932 10.0004L9.47852 -4.13315L9.91212 -4.14355L9.99932 10.0004Z" fill="#C0D4FF"/>
<path fill-rule="evenodd" clip-rule="evenodd" d="M9.99977 10.0008L9.82617 -4.1416H10.2598L9.99977 10.0008Z" fill="#BFD4FF"/>
<path fill-rule="evenodd" clip-rule="evenodd" d="M10 10.0008L10.1736 -4.1416L10.6072 -4.1304L10 10.0008Z" fill="#BED3FF"/>
<path fill-rule="evenodd" clip-rule="evenodd" d="M10 10.0008L10.5208 -4.13281L10.9536 -4.11121L10 10.0008Z" fill="#BDD2FF"/>
<path fill-rule="evenodd" clip-rule="evenodd" d="M10 10.0006L10.8672 -4.11621L11.3 -4.08421L10 10.0006Z" fill="#BCD2FF"/>
<path fill-rule="evenodd" clip-rule="evenodd" d="M10 10.0004L11.2136 -4.09082L11.6456 -4.04842L10 10.0004Z" fill="#BBD1FF"/>
<path fill-rule="evenodd" clip-rule="evenodd" d="M10 10.0002L11.5584 -4.05664L11.9896 -4.00384L10 10.0002Z" fill="#BAD0FF"/>
<path fill-rule="evenodd" clip-rule="evenodd" d="M10 10.0007L11.9032 -4.01367L12.3328 -3.95047L10 10.0007Z" fill="#B9D0FF"/>
<path fill-rule="evenodd" clip-rule="evenodd" d="M10 10.0003L12.2464 -3.96289L12.6744 -3.88929L10 10.0003Z" fill="#B8CFFF"/>
<path fill-rule="evenodd" clip-rule="evenodd" d="M10 10.0007L12.5888 -3.90332L13.0144 -3.81932L10 10.0007Z" fill="#B7CEFF"/>
<path fill-rule="evenodd" clip-rule="evenodd" d="M10 10.0009L12.9288 -3.83594L13.3528 -3.74074L10 10.0009Z" fill="#B6CDFF"/>
<path fill-rule="evenodd" clip-rule="evenodd" d="M10 10.0001L13.268 -3.76074L13.6888 -3.65514L10 10.0001Z" fill="#B5CDFF"/>
<path fill-rule="evenodd" clip-rule="evenodd" d="M10 10.0002L13.6048 -3.67578L14.0224 -3.56058L10 10.0002Z" fill="#B4CCFF"/>
<path fill-rule="evenodd" clip-rule="evenodd" d="M10 10L13.9392 -3.58398L14.3544 -3.45758L10 10Z" fill="#B3CBFF"/>
<path fill-rule="evenodd" clip-rule="evenodd" d="M10 10.0008L14.2712 -3.48242L14.6832 -3.34562L10 10.0008Z" fill="#B2CBFF"/>
<path fill-rule="evenodd" clip-rule="evenodd" d="M10 10.0004L14.6008 -3.37402L15.0096 -3.22762L10 10.0004Z" fill="#B1CAFF"/>
<path fill-rule="evenodd" clip-rule="evenodd" d="M10 9.99996L14.928 -3.25684L15.3328 -3.10084L10 9.99996Z" fill="#B0C9FF"/>
<path fill-rule="evenodd" clip-rule="evenodd" d="M10 10.0002L15.2512 -3.13184L15.6528 -2.96624L10 10.0002Z" fill="#AFC9FF"/>
<path fill-rule="evenodd" clip-rule="evenodd" d="M10 10.0002L15.572 -2.99902L15.9688 -2.82302L10 10.0002Z" fill="#AEC8FF"/>
<path fill-rule="evenodd" clip-rule="evenodd" d="M10 10L15.8896 -2.8584L16.2816 -2.6728L10 10Z" fill="#ADC7FF"/>
<path fill-rule="evenodd" clip-rule="evenodd" d="M10 10.0004L16.2032 -2.70996L16.5912 -2.51476L10 10.0004Z" fill="#ACC7FF"/>
<path fill-rule="evenodd" clip-rule="evenodd" d="M10 10.0007L16.5136 -2.55371L16.896 -2.34891L10 10.0007Z" fill="#ABC6FF"/>
<path fill-rule="evenodd" clip-rule="evenodd" d="M10 10.0008L16.8192 -2.38965L17.1976 -2.17605L10 10.0008Z" fill="#AAC5FF"/>
<path fill-rule="evenodd" clip-rule="evenodd" d="M10 10.0005L17.1216 -2.21875L17.4936 -1.99555L10 10.0005Z" fill="#A9C5FF"/>
<path fill-rule="evenodd" clip-rule="evenodd" d="M10 10.0008L17.4192 -2.04004L17.7856 -1.80804L10 10.0008Z" fill="#A8C4FF"/>
<path fill-rule="evenodd" clip-rule="evenodd" d="M10 10.0007L17.7128 -1.85449L18.0736 -1.61289L10 10.0007Z" fill="#A7C3FF"/>
<path fill-rule="evenodd" clip-rule="evenodd" d="M10 10.0003L18.0016 -1.66211L18.356 -1.41251L10 10.0003Z" fill="#A6C3FF"/>
<path fill-rule="evenodd" clip-rule="evenodd" d="M10 10.0005L18.2848 -1.46191L18.6336 -1.20351L10 10.0005Z" fill="#A5C2FF"/>
<path fill-rule="evenodd" clip-rule="evenodd" d="M10 10.0001L18.564 -1.25586L18.9056 -0.988659L10 10.0001Z" fill="#A4C1FF"/>
<path fill-rule="evenodd" clip-rule="evenodd" d="M10 10.0004L18.8376 -1.04199L19.1728 -0.766792L10 10.0004Z" fill="#A3C1FF"/>
<path fill-rule="evenodd" clip-rule="evenodd" d="M10 10.0003L19.1056 -0.821289L19.4344 -0.538089L10 10.0003Z" fill="#A2C0FF"/>
<path fill-rule="evenodd" clip-rule="evenodd" d="M10 10.0005L19.3688 -0.594727L19.6904 -0.303527L10 10.0005Z" fill="#A1BFFF"/>
<path fill-rule="evenodd" clip-rule="evenodd" d="M10 10.0001L19.6256 -0.362305L19.94 -0.0631047L10 10.0001Z" fill="#A0BFFF"/>
<path fill-rule="evenodd" clip-rule="evenodd" d="M10 10.0002L19.8768 -0.123047L20.184 0.184153L10 10.0002Z" fill="#9FBEFF"/>
<path fill-rule="evenodd" clip-rule="evenodd" d="M10 10.0008L20.1224 0.124023L20.4216 0.437623L10 10.0008Z" fill="#9EBDFF"/>
<path fill-rule="evenodd" clip-rule="evenodd" d="M10 10.0006L20.3624 0.375L20.6536 0.6966L10 10.0006Z" fill="#9DBDFF"/>
<path fill-rule="evenodd" clip-rule="evenodd" d="M10 10.0006L20.5952 0.631836L20.8784 0.960636L10 10.0006Z" fill="#9CBCFF"/>
<path fill-rule="evenodd" clip-rule="evenodd" d="M10 10.0001L20.8216 0.894531L21.0968 1.22973L10 10.0001Z" fill="#9BBBFF"/>
<path fill-rule="evenodd" clip-rule="evenodd" d="M10 10.0007L21.0424 1.16309L21.3088 1.50549L10 10.0007Z" fill="#9ABAFF"/>
<path fill-rule="evenodd" clip-rule="evenodd" d="M10 10.0005L21.256 1.43652L21.5144 1.78532L10 10.0005Z" fill="#99BAFF"/>
<path fill-rule="evenodd" clip-rule="evenodd" d="M10 10.0006L21.4624 1.71582L21.712 2.07022L10 10.0006Z" fill="#98B9FF"/>
<path fill-rule="evenodd" clip-rule="evenodd" d="M10 10.0006L21.6624 1.99902L21.9032 2.35982L10 10.0006Z" fill="#97B8FF"/>
<path fill-rule="evenodd" clip-rule="evenodd" d="M10 10.0009L21.8552 2.28809L22.0872 2.65529L10 10.0009Z" fill="#96B8FF"/>
<path fill-rule="evenodd" clip-rule="evenodd" d="M10 10.0003L22.0408 2.58105L22.264 2.95305L10 10.0003Z" fill="#95B7FF"/>
<path fill-rule="evenodd" clip-rule="evenodd" d="M10 10.0005L22.2192 2.87891L22.4328 3.25651L10 10.0005Z" fill="#94B6FF"/>
<path fill-rule="evenodd" clip-rule="evenodd" d="M10 10.0008L22.3904 3.18164L22.5944 3.56404L10 10.0008Z" fill="#93B6FF"/>
<path fill-rule="evenodd" clip-rule="evenodd" d="M10 10.0009L22.5536 3.4873L22.7488 3.8753L10 10.0009Z" fill="#92B5FF"/>
<path fill-rule="evenodd" clip-rule="evenodd" d="M10 10.0001L22.7104 3.79688L22.8952 4.18887L10 10.0001Z" fill="#91B4FF"/>
<path fill-rule="evenodd" clip-rule="evenodd" d="M10 10.0009L22.8584 4.11133L23.0344 4.50813L10 10.0009Z" fill="#90B4FF"/>
<path fill-rule="evenodd" clip-rule="evenodd" d="M10 10.0005L22.9992 4.42773L23.1648 4.82933L10 10.0005Z" fill="#8FB3FF"/>
<path fill-rule="evenodd" clip-rule="evenodd" d="M10 10L23.132 4.74805L23.288 5.15365L10 10Z" fill="#8EB2FF"/>
<path fill-rule="evenodd" clip-rule="evenodd" d="M10 10.0003L23.2568 5.07227L23.4032 5.48107L10 10.0003Z" fill="#8DB2FF"/>
<path fill-rule="evenodd" clip-rule="evenodd" d="M10 10.0002L23.3736 5.39941L23.5096 5.81141L10 10.0002Z" fill="#8CB1FF"/>
<path fill-rule="evenodd" clip-rule="evenodd" d="M10 10.0007L23.4824 5.72949L23.6088 6.14469L10 10.0007Z" fill="#8BB0FF"/>
<path fill-rule="evenodd" clip-rule="evenodd" d="M10 10.0007L23.5832 6.06152L23.6992 6.47992L10 10.0007Z" fill="#8AB0FF"/>
<path fill-rule="evenodd" clip-rule="evenodd" d="M10 10.0003L23.676 6.39551L23.7816 6.81631L10 10.0003Z" fill="#89AFFF"/>
<path fill-rule="evenodd" clip-rule="evenodd" d="M10 10.0004L23.7608 6.73242L23.8552 7.15562L10 10.0004Z" fill="#88AEFF"/>
<path fill-rule="evenodd" clip-rule="evenodd" d="M10 10.0001L23.836 7.07129L23.9208 7.49609L10 10.0001Z" fill="#87AEFF"/>
<path fill-rule="evenodd" clip-rule="evenodd" d="M10 10.0009L23.904 7.41211L23.9784 7.83931L10 10.0009Z" fill="#86ADFF"/>
<path fill-rule="evenodd" clip-rule="evenodd" d="M10 10.0001L23.9632 7.75293L24.0272 8.18253L10 10.0001Z" fill="#85ACFF"/>
<path fill-rule="evenodd" clip-rule="evenodd" d="M10 10.0009L24.0144 8.09766L24.0672 8.52806L10 10.0009Z" fill="#84ACFF"/>
<path fill-rule="evenodd" clip-rule="evenodd" d="M10 10.0006L24.0568 8.44141L24.0992 8.87341L10 10.0006Z" fill="#83ABFF"/>
<path fill-rule="evenodd" clip-rule="evenodd" d="M10 10.0007L24.0912 8.78711L24.1232 9.21991L10 10.0007Z" fill="#82AAFF"/>
<path fill-rule="evenodd" clip-rule="evenodd" d="M10 10L24.1168 9.13281L24.1376 9.56641L10 10Z" fill="#81AAFF"/>
<path fill-rule="evenodd" clip-rule="evenodd" d="M10 10.0003L24.1336 9.47949L24.144 9.91309L10 10.0003Z" fill="#80A9FF"/>
<path fill-rule="evenodd" clip-rule="evenodd" d="M10 10.0007L24.1416 9.82715V10.2607L10 10.0007Z" fill="#7FA8FF"/>
<path fill-rule="evenodd" clip-rule="evenodd" d="M10 10L24.1416 10.1736L24.1312 10.6072L10 10Z" fill="#7EA7FF"/>
<path fill-rule="evenodd" clip-rule="evenodd" d="M10 10L24.1336 10.5208L24.112 10.9536L10 10Z" fill="#7DA7FF"/>
<path fill-rule="evenodd" clip-rule="evenodd" d="M10 10L24.1168 10.8672L24.0848 11.3L10 10Z" fill="#7CA6FF"/>
<path fill-rule="evenodd" clip-rule="evenodd" d="M10 10L24.0912 11.2136L24.0488 11.6456L10 10Z" fill="#7BA5FF"/>
<path fill-rule="evenodd" clip-rule="evenodd" d="M10 10L24.0568 11.5584L24.004 11.9896L10 10Z" fill="#7AA5FF"/>
<path fill-rule="evenodd" clip-rule="evenodd" d="M10 10L24.0144 11.9032L23.9504 12.3328L10 10Z" fill="#79A4FF"/>
<path fill-rule="evenodd" clip-rule="evenodd" d="M10 10L23.9632 12.2464L23.8896 12.6744L10 10Z" fill="#78A3FF"/>
<path fill-rule="evenodd" clip-rule="evenodd" d="M10 10L23.904 12.5888L23.8192 13.0144L10 10Z" fill="#77A3FF"/>
<path fill-rule="evenodd" clip-rule="evenodd" d="M10 10L23.836 12.9288L23.7416 13.3528L10 10Z" fill="#76A2FF"/>
<path fill-rule="evenodd" clip-rule="evenodd" d="M10 10L23.7608 13.268L23.6552 13.6888L10 10Z" fill="#75A1FF"/>
<path fill-rule="evenodd" clip-rule="evenodd" d="M10 10L23.676 13.6048L23.5608 14.0224L10 10Z" fill="#74A1FF"/>
<path fill-rule="evenodd" clip-rule="evenodd" d="M10 10L23.5832 13.9392L23.4576 14.3544L10 10Z" fill="#73A0FF"/>
<path fill-rule="evenodd" clip-rule="evenodd" d="M10 10L23.4824 14.2712L23.3464 14.6832L10 10Z" fill="#729FFF"/>
<path fill-rule="evenodd" clip-rule="evenodd" d="M10 10L23.3736 14.6008L23.228 15.0096L10 10Z" fill="#719FFF"/>
<path fill-rule="evenodd" clip-rule="evenodd" d="M10 10L23.2568 14.928L23.1008 15.3328L10 10Z" fill="#709EFF"/>
<path fill-rule="evenodd" clip-rule="evenodd" d="M10 10L23.132 15.2512L22.9656 15.6528L10 10Z" fill="#6F9DFF"/>
<path fill-rule="evenodd" clip-rule="evenodd" d="M10 10L22.9992 15.572L22.8232 15.9688L10 10Z" fill="#6E9DFF"/>
<path fill-rule="evenodd" clip-rule="evenodd" d="M10 10L22.8584 15.8896L22.6728 16.2816L10 10Z" fill="#6D9CFF"/>
<path fill-rule="evenodd" clip-rule="evenodd" d="M10 10L22.7104 16.2032L22.5152 16.5912L10 10Z" fill="#6C9BFF"/>
<path fill-rule="evenodd" clip-rule="evenodd" d="M10 10L22.5536 16.5136L22.3496 16.896L10 10Z" fill="#6B9BFF"/>
<path fill-rule="evenodd" clip-rule="evenodd" d="M10 10L22.3904 16.8192L22.1768 17.1976L10 10Z" fill="#6A9AFF"/>
<path fill-rule="evenodd" clip-rule="evenodd" d="M10 10L22.2192 17.1216L21.996 17.4936L10 10Z" fill="#6999FF"/>
<path fill-rule="evenodd" clip-rule="evenodd" d="M10 10L22.0408 17.4192L21.8088 17.7856L10 10Z" fill="#6899FF"/>
<path fill-rule="evenodd" clip-rule="evenodd" d="M10 10L21.8552 17.7128L21.6136 18.0736L10 10Z" fill="#6798FF"/>
<path fill-rule="evenodd" clip-rule="evenodd" d="M10 10L21.6624 18.0016L21.4128 18.356L10 10Z" fill="#6697FF"/>
<path fill-rule="evenodd" clip-rule="evenodd" d="M10 10L21.4624 18.2848L21.204 18.6336L10 10Z" fill="#6597FF"/>
<path fill-rule="evenodd" clip-rule="evenodd" d="M10 10L21.256 18.564L20.9888 18.9056L10 10Z" fill="#6496FF"/>
<path fill-rule="evenodd" clip-rule="evenodd" d="M10 10L21.0424 18.8376L20.7672 19.1728L10 10Z" fill="#6395FF"/>
<path fill-rule="evenodd" clip-rule="evenodd" d="M10 10L20.8216 19.1056L20.5384 19.4344L10 10Z" fill="#6294FF"/>
<path fill-rule="evenodd" clip-rule="evenodd" d="M10 10L20.5952 19.3688L20.304 19.6904L10 10Z" fill="#6194FF"/>
<path fill-rule="evenodd" clip-rule="evenodd" d="M10 10L20.3624 19.6256L20.0632 19.94L10 10Z" fill="#6093FF"/>
<path fill-rule="evenodd" clip-rule="evenodd" d="M10 10L20.1224 19.8768L19.816 20.184L10 10Z" fill="#5F92FF"/>
<path fill-rule="evenodd" clip-rule="evenodd" d="M10 10L19.8768 20.1224L19.5632 20.4216L10 10Z" fill="#5E92FF"/>
<path fill-rule="evenodd" clip-rule="evenodd" d="M10 10L19.6256 20.3624L19.304 20.6536L10 10Z" fill="#5D91FF"/>
<path fill-rule="evenodd" clip-rule="evenodd" d="M10 10L19.3688 20.5952L19.04 20.8784L10 10Z" fill="#5C90FF"/>
<path fill-rule="evenodd" clip-rule="evenodd" d="M10 10L19.1056 20.8216L18.7704 21.0968L10 10Z" fill="#5B90FF"/>
<path fill-rule="evenodd" clip-rule="evenodd" d="M10 10L18.8376 21.0424L18.4952 21.3088L10 10Z" fill="#5A8FFF"/>
<path fill-rule="evenodd" clip-rule="evenodd" d="M10 10L18.564 21.256L18.2152 21.5144L10 10Z" fill="#598EFF"/>
<path fill-rule="evenodd" clip-rule="evenodd" d="M10 10L18.2848 21.4624L17.9304 21.712L10 10Z" fill="#588EFF"/>
<path fill-rule="evenodd" clip-rule="evenodd" d="M10 10L18.0016 21.6624L17.64 21.9032L10 10Z" fill="#578DFF"/>
<path fill-rule="evenodd" clip-rule="evenodd" d="M10 10L17.7128 21.8552L17.3456 22.0872L10 10Z" fill="#568CFF"/>
<path fill-rule="evenodd" clip-rule="evenodd" d="M10 10L17.4192 22.0408L17.0472 22.264L10 10Z" fill="#558CFF"/>
<path fill-rule="evenodd" clip-rule="evenodd" d="M10 10L17.1216 22.2192L16.744 22.4328L10 10Z" fill="#548BFF"/>
<path fill-rule="evenodd" clip-rule="evenodd" d="M10 10L16.8192 22.3904L16.4368 22.5944L10 10Z" fill="#538AFF"/>
<path fill-rule="evenodd" clip-rule="evenodd" d="M10 10L16.5136 22.5536L16.1256 22.7488L10 10Z" fill="#528AFF"/>
<path fill-rule="evenodd" clip-rule="evenodd" d="M10 10L16.2032 22.7104L15.8112 22.8952L10 10Z" fill="#5189FF"/>
<path fill-rule="evenodd" clip-rule="evenodd" d="M10 10L15.8896 22.8584L15.4928 23.0344L10 10Z" fill="#5088FF"/>
<path fill-rule="evenodd" clip-rule="evenodd" d="M10 10L15.572 22.9992L15.1712 23.1648L10 10Z" fill="#4F88FF"/>
<path fill-rule="evenodd" clip-rule="evenodd" d="M10 10L15.2512 23.132L14.8464 23.288L10 10Z" fill="#4E87FF"/>
<path fill-rule="evenodd" clip-rule="evenodd" d="M10 10L14.928 23.2568L14.5192 23.4032L10 10Z" fill="#4D86FF"/>
<path fill-rule="evenodd" clip-rule="evenodd" d="M10 10L14.6008 23.3736L14.1888 23.5096L10 10Z" fill="#4C86FF"/>
<path fill-rule="evenodd" clip-rule="evenodd" d="M10 10L14.2712 23.4824L13.856 23.6088L10 10Z" fill="#4B85FF"/>
<path fill-rule="evenodd" clip-rule="evenodd" d="M10 10L13.9392 23.5832L13.5208 23.6992L10 10Z" fill="#4A84FF"/>
<path fill-rule="evenodd" clip-rule="evenodd" d="M10 10L13.6048 23.676L13.1832 23.7816L10 10Z" fill="#4984FF"/>
<path fill-rule="evenodd" clip-rule="evenodd" d="M10 10L13.268 23.7608L12.8448 23.8552L10 10Z" fill="#4883FF"/>
<path fill-rule="evenodd" clip-rule="evenodd" d="M10 10L12.9288 23.836L12.5032 23.9208L10 10Z" fill="#4782FF"/>
<path fill-rule="evenodd" clip-rule="evenodd" d="M10 10L12.5888 23.904L12.1616 23.9784L10 10Z" fill="#4681FF"/>
<path fill-rule="evenodd" clip-rule="evenodd" d="M10 10L12.2464 23.9632L11.8176 24.0272L10 10Z" fill="#4581FF"/>
<path fill-rule="evenodd" clip-rule="evenodd" d="M10 10L11.9032 24.0144L11.4728 24.0672L10 10Z" fill="#4480FF"/>
<path fill-rule="evenodd" clip-rule="evenodd" d="M10 10L11.5584 24.0568L11.1272 24.0992L10 10Z" fill="#437FFF"/>
<path fill-rule="evenodd" clip-rule="evenodd" d="M10 10L11.2136 24.0912L10.7808 24.1232L10 10Z" fill="#427FFF"/>
<path fill-rule="evenodd" clip-rule="evenodd" d="M10 10L10.8672 24.1168L10.4336 24.1376L10 10Z" fill="#417EFF"/>
<path fill-rule="evenodd" clip-rule="evenodd" d="M10 10L10.5208 24.1336L10.0864 24.144L10 10Z" fill="#407DFF"/>
<path fill-rule="evenodd" clip-rule="evenodd" d="M9.99908 10L10.1727 24.1416H9.73828L9.99908 10Z" fill="#3F7DFF"/>
<path fill-rule="evenodd" clip-rule="evenodd" d="M9.99978 10L9.82618 24.1416L9.39258 24.1312L9.99978 10Z" fill="#3E7CFF"/>
<path fill-rule="evenodd" clip-rule="evenodd" d="M9.99932 10L9.47852 24.1336L9.04492 24.112L9.99932 10Z" fill="#3D7BFF"/>
<path fill-rule="evenodd" clip-rule="evenodd" d="M9.99922 10L9.13202 24.1168L8.69922 24.0848L9.99922 10Z" fill="#3C7BFF"/>
<path fill-rule="evenodd" clip-rule="evenodd" d="M9.99912 10L8.78552 24.0912L8.35352 24.0488L9.99912 10Z" fill="#3B7AFF"/>
<path fill-rule="evenodd" clip-rule="evenodd" d="M9.99937 10L8.44017 24.0568L8.00977 24.004L9.99937 10Z" fill="#3A79FF"/>
<path fill-rule="evenodd" clip-rule="evenodd" d="M9.99882 10L8.09562 24.0144L7.66602 23.9504L9.99882 10Z" fill="#3979FF"/>
<path fill-rule="evenodd" clip-rule="evenodd" d="M9.99862 10L7.75142 23.9632L7.32422 23.8896L9.99862 10Z" fill="#3878FF"/>
<path fill-rule="evenodd" clip-rule="evenodd" d="M9.99878 10L7.40998 23.904L6.98438 23.8192L9.99878 10Z" fill="#3777FF"/>
<path fill-rule="evenodd" clip-rule="evenodd" d="M9.99928 10L7.07048 23.836L6.64648 23.7416L9.99928 10Z" fill="#3677FF"/>
<path fill-rule="evenodd" clip-rule="evenodd" d="M9.99935 10L6.73135 23.7608L6.31055 23.6552L9.99935 10Z" fill="#3576FF"/>
<path fill-rule="evenodd" clip-rule="evenodd" d="M9.99976 10L6.39496 23.676L5.97656 23.5608L9.99976 10Z" fill="#3475FF"/>
<path fill-rule="evenodd" clip-rule="evenodd" d="M9.99893 10L6.05973 23.5832L5.64453 23.4576L9.99893 10Z" fill="#3375FF"/>
<path fill-rule="evenodd" clip-rule="evenodd" d="M9.99961 10L5.72841 23.4824L5.31641 23.3464L9.99961 10Z" fill="#3274FF"/>
<path fill-rule="evenodd" clip-rule="evenodd" d="M9.99983 10L5.39903 23.3736L4.99023 23.228L9.99983 10Z" fill="#3173FF"/>
<path fill-rule="evenodd" clip-rule="evenodd" d="M9.99882 10L5.07082 23.2568L4.66602 23.1008L9.99882 10Z" fill="#3073FF"/>
<path fill-rule="evenodd" clip-rule="evenodd" d="M9.9985 10L4.7465 23.132L4.3457 22.9656L9.9985 10Z" fill="#2F72FF"/>
<path fill-rule="evenodd" clip-rule="evenodd" d="M10 10L4.42725 22.9992L4.03125 22.8232L10 10Z" fill="#2E71FF"/>
<path fill-rule="evenodd" clip-rule="evenodd" d="M10.0003 10L4.11075 22.8584L3.71875 22.6728L10.0003 10Z" fill="#2D71FF"/>
<path fill-rule="evenodd" clip-rule="evenodd" d="M9.9994 10L3.7962 22.7104L3.4082 22.5152L9.9994 10Z" fill="#2C70FF"/>
<path fill-rule="evenodd" clip-rule="evenodd" d="M9.99952 10L3.48592 22.5536L3.10352 22.3496L9.99952 10Z" fill="#2B6FFF"/>
<path fill-rule="evenodd" clip-rule="evenodd" d="M10.0003 10L3.18113 22.3904L2.80273 22.1768L10.0003 10Z" fill="#2A6EFF"/>
<path fill-rule="evenodd" clip-rule="evenodd" d="M9.99946 10L2.87786 22.2192L2.50586 21.996L9.99946 10Z" fill="#296EFF"/>
<path fill-rule="evenodd" clip-rule="evenodd" d="M9.99929 10L2.58009 22.0408L2.21289 21.8088L9.99929 10Z" fill="#286DFF"/>
<path fill-rule="evenodd" clip-rule="evenodd" d="M9.99938 10L2.28658 21.8552L1.92578 21.6136L9.99938 10Z" fill="#276CFF"/>
<path fill-rule="evenodd" clip-rule="evenodd" d="M9.99858 10L1.99698 21.6624L1.64258 21.4128L9.99858 10Z" fill="#266CFF"/>
<path fill-rule="evenodd" clip-rule="evenodd" d="M9.99883 10L1.71403 21.4624L1.36523 21.204L9.99883 10Z" fill="#256BFF"/>
<path fill-rule="evenodd" clip-rule="evenodd" d="M10.0002 10L1.43615 21.256L1.09375 20.9888L10.0002 10Z" fill="#246AFF"/>
<path fill-rule="evenodd" clip-rule="evenodd" d="M9.99897 10L1.16137 21.0424L0.826172 20.7672L9.99897 10Z" fill="#236AFF"/>
<path fill-rule="evenodd" clip-rule="evenodd" d="M9.99885 10L0.893253 20.8216L0.564453 20.5384L9.99885 10Z" fill="#2269FF"/>
<path fill-rule="evenodd" clip-rule="evenodd" d="M9.99899 10L0.630194 20.5952L0.308594 20.304L9.99899 10Z" fill="#2168FF"/>
<path fill-rule="evenodd" clip-rule="evenodd" d="M9.99859 10L0.372994 20.3624L0.0585938 20.0632L9.99859 10Z" fill="#2068FF"/>
<path fill-rule="evenodd" clip-rule="evenodd" d="M10.0004 10L0.123606 20.1224L-0.183594 19.816L10.0004 10Z" fill="#1F67FF"/>
<path fill-rule="evenodd" clip-rule="evenodd" d="M9.99972 10L-0.123475 19.8768L-0.421875 19.5632L9.99972 10Z" fill="#1E66FF"/>
<path fill-rule="evenodd" clip-rule="evenodd" d="M9.9993 10L-0.363097 19.6256L-0.654297 19.304L9.9993 10Z" fill="#1D66FF"/>
<path fill-rule="evenodd" clip-rule="evenodd" d="M9.99949 10L-0.595706 19.3688L-0.878906 19.04L9.99949 10Z" fill="#1C65FF"/>
<path fill-rule="evenodd" clip-rule="evenodd" d="M9.99914 10L-0.822456 19.1056L-1.09766 18.7704L9.99914 10Z" fill="#1B64FF"/>
<path fill-rule="evenodd" clip-rule="evenodd" d="M10.0002 10L-1.04219 18.8376L-1.30859 18.4952L10.0002 10Z" fill="#1A64FF"/>
<path fill-rule="evenodd" clip-rule="evenodd" d="M9.99878 10L-1.25722 18.564L-1.51562 18.2152L9.99878 10Z" fill="#1963FF"/>
<path fill-rule="evenodd" clip-rule="evenodd" d="M9.99911 10L-1.46329 18.2848L-1.71289 17.9304L9.99911 10Z" fill="#1862FF"/>
<path fill-rule="evenodd" clip-rule="evenodd" d="M9.9989 10L-1.6635 18.0016L-1.9043 17.64L9.9989 10Z" fill="#1762FF"/>
<path fill-rule="evenodd" clip-rule="evenodd" d="M9.99931 10L-1.85589 17.7128L-2.08789 17.3456L9.99931 10Z" fill="#1661FF"/>
<path fill-rule="evenodd" clip-rule="evenodd" d="M10.0003 10L-2.04047 17.4192L-2.26367 17.0472L10.0003 10Z" fill="#1560FF"/>
<path fill-rule="evenodd" clip-rule="evenodd" d="M9.99921 10L-2.21999 17.1216L-2.43359 16.744L9.99921 10Z" fill="#1460FF"/>
<path fill-rule="evenodd" clip-rule="evenodd" d="M9.9995 10L-2.3909 16.8192L-2.5957 16.4368L9.9995 10Z" fill="#135FFF"/>
<path fill-rule="evenodd" clip-rule="evenodd" d="M9.9988 10L-2.5556 16.5136L-2.75 16.1256L9.9988 10Z" fill="#125EFF"/>
<path fill-rule="evenodd" clip-rule="evenodd" d="M9.99871 10L-2.71168 16.2032L-2.89648 15.8112L9.99871 10Z" fill="#115EFF"/>
<path fill-rule="evenodd" clip-rule="evenodd" d="M9.99924 10L-2.85916 15.8896L-3.03516 15.4928L9.99924 10Z" fill="#105DFF"/>
<path fill-rule="evenodd" clip-rule="evenodd" d="M9.99958 10L-2.99962 15.572L-3.16602 15.1712L9.99958 10Z" fill="#0F5CFF"/>
<path fill-rule="evenodd" clip-rule="evenodd" d="M9.99894 10L-3.13306 15.2512L-3.28906 14.8464L9.99894 10Z" fill="#0E5BFF"/>
<path fill-rule="evenodd" clip-rule="evenodd" d="M9.9989 10L-3.2579 14.928L-3.4043 14.5192L9.9989 10Z" fill="#0D5BFF"/>
<path fill-rule="evenodd" clip-rule="evenodd" d="M9.99983 10L-3.37457 14.6008L-3.50977 14.1888L9.99983 10Z" fill="#0C5AFF"/>
<path fill-rule="evenodd" clip-rule="evenodd" d="M9.99943 10L-3.48377 14.2712L-3.60938 13.856L9.99943 10Z" fill="#0B59FF"/>
<path fill-rule="evenodd" clip-rule="evenodd" d="M9.99998 10L-3.58402 13.9392L-3.69922 13.5208L9.99998 10Z" fill="#0A59FF"/>
<path fill-rule="evenodd" clip-rule="evenodd" d="M10.0004 10L-3.67565 13.6048L-3.78125 13.1832L10.0004 10Z" fill="#0958FF"/>
<path fill-rule="evenodd" clip-rule="evenodd" d="M9.99973 10L-3.76107 13.268L-3.85547 12.8448L9.99973 10Z" fill="#0857FF"/>
<path fill-rule="evenodd" clip-rule="evenodd" d="M9.99893 10L-3.83787 12.9288L-3.92188 12.5032L9.99893 10Z" fill="#0757FF"/>
<path fill-rule="evenodd" clip-rule="evenodd" d="M9.99988 10L-3.90412 12.5888L-3.97852 12.1616L9.99988 10Z" fill="#0656FF"/>
<path fill-rule="evenodd" clip-rule="evenodd" d="M9.99986 10L-3.96334 12.2464L-4.02734 11.8176L9.99986 10Z" fill="#0555FF"/>
<path fill-rule="evenodd" clip-rule="evenodd" d="M9.99884 10L-4.01556 11.9032L-4.06836 11.4728L9.99884 10Z" fill="#0455FF"/>
<path fill-rule="evenodd" clip-rule="evenodd" d="M9.99959 10L-4.05721 11.5584L-4.09961 11.1272L9.99959 10Z" fill="#0354FF"/>
<path fill-rule="evenodd" clip-rule="evenodd" d="M10.0002 10L-4.09105 11.2136L-4.12305 10.7808L10.0002 10Z" fill="#0253FF"/>
<path fill-rule="evenodd" clip-rule="evenodd" d="M9.99893 10L-4.11787 10.8672L-4.13867 10.4336L9.99893 10Z" fill="#0153FF"/>
<path fill-rule="evenodd" clip-rule="evenodd" d="M9.99947 10L-4.13413 10.5208L-4.14453 10.0864L9.99947 10Z" fill="#0052FF"/>
<path fill-rule="evenodd" clip-rule="evenodd" d="M9.99982 10.0007L-4.14258 10.1743V9.82715L9.99982 10.0007Z" fill="white"/>
</g>
</g>
<defs>
<clipPath id="clip0_3207_531">
<rect width="20" height="20" fill="white"/>
</clipPath>
</defs>
</svg>
