<svg width="20" height="20" viewBox="0 0 20 20" fill="none" xmlns="http://www.w3.org/2000/svg">
<path d="M16.6654 12.499V6.24902L11.457 3.31934M8.54036 3.31934L3.33203 6.24902V12.499M4.58203 14.4521L9.9987 17.499L13.332 15.624L15.4154 14.4521" stroke="black" stroke-width="1.66667" stroke-linecap="round" stroke-linejoin="round"/>
<path d="M8.74805 7.81217L7.49805 8.54134V9.99967V11.458L8.74805 12.1872L9.99805 12.9163L11.248 12.1872L12.498 11.458V9.99967V8.54134L11.248 7.81217L9.99805 7.08301L8.74805 7.81217Z" fill="#2F88FF" stroke="black" stroke-width="1.66667" stroke-linecap="round" stroke-linejoin="round"/>
<path d="M9.99805 7.08268V4.16602" stroke="black" stroke-width="1.66667" stroke-linecap="round" stroke-linejoin="round"/>
<path d="M12.498 11.249L15.4147 12.9157" stroke="black" stroke-width="1.66667" stroke-linecap="round" stroke-linejoin="round"/>
<path d="M7.4987 11.249L4.58203 12.9157" stroke="black" stroke-width="1.66667" stroke-linecap="round" stroke-linejoin="round"/>
<path d="M9.99805 4.16602C10.6884 4.16602 11.248 3.60637 11.248 2.91602C11.248 2.22566 10.6884 1.66602 9.99805 1.66602C9.30769 1.66602 8.74805 2.22566 8.74805 2.91602C8.74805 3.60637 9.30769 4.16602 9.99805 4.16602Z" fill="#2F88FF" stroke="black" stroke-width="1.66667" stroke-linecap="round" stroke-linejoin="round"/>
<path d="M3.33203 14.999C4.02239 14.999 4.58203 14.4394 4.58203 13.749C4.58203 13.0587 4.02239 12.499 3.33203 12.499C2.64168 12.499 2.08203 13.0587 2.08203 13.749C2.08203 14.4394 2.64168 14.999 3.33203 14.999Z" fill="#2F88FF" stroke="black" stroke-width="1.66667" stroke-linecap="round" stroke-linejoin="round"/>
<path d="M16.666 14.999C17.3564 14.999 17.916 14.4394 17.916 13.749C17.916 13.0587 17.3564 12.499 16.666 12.499C15.9757 12.499 15.416 13.0587 15.416 13.749C15.416 14.4394 15.9757 14.999 16.666 14.999Z" fill="#2F88FF" stroke="black" stroke-width="1.66667" stroke-linecap="round" stroke-linejoin="round"/>
</svg>
