<svg width="20" height="20" viewBox="0 0 20 20" fill="none" xmlns="http://www.w3.org/2000/svg">
<path d="M8 15.4C10.4304 15.4 12.4 13.4304 12.4 11C12.4 8.5696 10.4304 6.6 8 6.6C5.5696 6.6 3.6 8.5696 3.6 11C3.6 13.4304 5.5696 15.4 8 15.4ZM8 17C4.6864 17 2 14.3136 2 11C2 7.6864 4.6864 5 8 5C11.3136 5 14 7.6864 14 11C14 14.3136 11.3136 17 8 17Z" fill="#FBCC5C"/>
<path d="M11 12.4C13.4304 12.4 15.4 10.4304 15.4 8C15.4 5.5696 13.4304 3.6 11 3.6C8.5696 3.6 6.6 5.5696 6.6 8C6.6 10.4304 8.5696 12.4 11 12.4ZM11 14C7.6864 14 5 11.3136 5 8C5 4.6864 7.6864 2 11 2C14.3136 2 17 4.6864 17 8C17 11.3136 14.3136 14 11 14Z" fill="#35D07F"/>
<path d="M11.3393 14C11.7647 13.4845 12.0691 12.8807 12.2311 12.2311C12.8791 12.0691 13.4829 11.7647 14 11.3393C13.9771 12.0904 13.8151 12.83 13.5222 13.5238C12.83 13.8151 12.0904 13.9771 11.3393 14ZM6.76891 6.76891C6.12091 6.93091 5.51709 7.23527 5 7.66073C5.02291 6.90964 5.18491 6.17 5.47782 5.47782C6.17 5.18655 6.91127 5.02455 7.66073 5C7.23527 5.51545 6.93091 6.11927 6.76891 6.76891Z" fill="#5EA33B"/>
</svg>
