<svg width="20" height="20" viewBox="0 0 20 20" fill="none" xmlns="http://www.w3.org/2000/svg">
<path d="M10.1748 2.78359C10.3383 2.78359 10.4869 2.82818 10.6207 2.9025L16.1053 6.06838C16.3877 6.23187 16.5512 6.52914 16.5512 6.84127V12.9947C16.5512 13.3068 16.3877 13.6041 16.1053 13.7676L10.6207 16.9334C10.4869 17.0078 10.3383 17.0523 10.1748 17.0523C10.0113 17.0523 9.86268 17.0078 9.72891 16.9334L4.22949 13.7676C3.94709 13.6041 3.78359 13.3068 3.78359 12.9947V6.84127C3.78359 6.52914 3.94709 6.23187 4.22949 6.06838L9.71404 2.9025C9.86268 2.82818 10.0113 2.78359 10.1748 2.78359ZM10.1748 1C9.71404 1 9.25328 1.11891 8.83711 1.35672L3.3377 4.5226C2.50535 4.99822 2 5.89002 2 6.84127V12.9947C2 13.9459 2.50535 14.8377 3.3377 15.3133L8.82225 18.4792C9.23842 18.717 9.69918 18.8359 10.1599 18.8359C10.6207 18.8359 11.0815 18.717 11.4976 18.4792L16.9822 15.3133C17.8145 14.8377 18.3199 13.9459 18.3199 12.9947V6.84127C18.3199 5.89002 17.8145 4.99822 16.9822 4.5226L11.5125 1.35672C11.0963 1.11891 10.6356 1 10.1748 1Z" fill="#FF9500"/>
</svg>
