<svg width="20" height="20" viewBox="0 0 20 20" fill="none" xmlns="http://www.w3.org/2000/svg">
<path d="M6.86183 11C7.27358 11 7.67529 10.8627 8 10.6116L5.38891 8C4.75957 8.81362 4.91021 9.98549 5.72367 10.615C6.05173 10.8627 6.45008 11 6.86183 11Z" fill="#00193C"/>
<path d="M15 9.13817C15 8.72642 14.8627 8.32471 14.6116 8L12 10.6111C12.8136 11.2404 13.9821 11.0898 14.6116 10.2763C14.8627 9.95162 15 9.54992 15 9.13817Z" fill="#00193C"/>
<path d="M16.8448 6L15.5551 7.27424C16.5944 8.50416 16.4299 10.3361 15.185 11.3629C14.0934 12.2641 12.5084 12.2641 11.4168 11.3629L9.99999 12.7627L8.58691 11.3666C7.34205 12.3934 5.48784 12.2308 4.44859 11.0009C3.53645 9.92244 3.53645 8.35642 4.44859 7.27793L3.78691 6.62419L3.15888 6C2.4 7.23361 2 8.65189 2 10.096C2 14.4617 5.5813 18 9.99999 18C14.4187 18 18 14.4617 18 10.096C18.0037 8.65189 17.6 7.23361 16.8448 6Z" fill="#00193C"/>
<path d="M15.47 4.35162C12.5901 1.31834 7.80565 1.20481 4.78445 4.09618C4.69611 4.18133 4.61131 4.26647 4.53004 4.35162C4.34276 4.55029 4.16608 4.75605 4 4.97246L10 11L16 4.97246C15.8375 4.75605 15.6572 4.55029 15.47 4.35162ZM10 2.99285C11.7668 2.99285 13.4134 3.67755 14.6502 4.92634L10 9.59511L5.34982 4.92634C6.58657 3.67755 8.23322 2.99285 10 2.99285Z" fill="#00193C"/>
</svg>
