<svg width="20" height="20" viewBox="0 0 20 20" fill="none" xmlns="http://www.w3.org/2000/svg">
<mask id="mask0_3203_705" style="mask-type:luminance" maskUnits="userSpaceOnUse" x="2" y="2" width="16" height="16">
<path d="M18 2H2V18H18V2Z" fill="white"/>
</mask>
<g mask="url(#mask0_3203_705)">
<path d="M9.89407 2.2793C6.70474 2.2793 4.12127 4.8649 4.11914 8.05423C4.11914 8.41903 4.15327 8.78383 4.22154 9.14223L4.96821 8.63236C6.28021 7.7321 8.40714 7.7321 9.71701 8.63236L10.4999 9.16996L10.9245 9.46223C12.1063 10.2729 14.0221 10.2729 15.2018 9.46223L15.5495 9.22543C16.1895 6.1001 14.1757 3.0473 11.0503 2.40516C10.6706 2.32623 10.2845 2.28783 9.89621 2.28783L9.89407 2.2793Z" fill="#F2B705"/>
</g>
<mask id="mask1_3203_705" style="mask-type:luminance" maskUnits="userSpaceOnUse" x="2" y="2" width="16" height="16">
<path d="M18 2H2V18H18V2Z" fill="white"/>
</mask>
<g mask="url(#mask1_3203_705)">
<path d="M13.1391 11.5232C12.3135 11.5381 11.5028 11.3077 10.8116 10.8618L9.60628 10.0362C8.26868 9.21489 6.58121 9.21489 5.24148 10.0362L4.46281 10.5696C4.30921 10.6762 4.09801 10.6357 3.99135 10.4821C3.88468 10.3285 3.92521 10.1173 4.07881 10.0106L4.85748 9.47729C6.42761 8.50236 8.41588 8.50236 9.98601 9.47729L11.1913 10.3029C12.3839 11.0346 13.8879 11.0346 15.0804 10.3029L15.5369 9.98929C15.6905 9.88263 15.9017 9.92316 16.0084 10.0768C16.1151 10.2304 16.0745 10.4416 15.9209 10.5482L15.4644 10.8618C14.7732 11.3056 13.9625 11.536 13.1391 11.5232Z" fill="#53CBC8"/>
</g>
<mask id="mask2_3203_705" style="mask-type:luminance" maskUnits="userSpaceOnUse" x="2" y="2" width="16" height="16">
<path d="M18 2H2V18H18V2Z" fill="white"/>
</mask>
<g mask="url(#mask2_3203_705)">
<path d="M7.39725 13.9495V10.6855C7.39512 10.6172 7.39725 10.549 7.40579 10.4807C7.42712 10.2951 7.58499 10.1543 7.77272 10.1543C7.95405 10.1607 8.10125 10.2994 8.11832 10.4807C8.13325 10.5938 8.13539 10.709 8.13112 10.822V17.3287C8.13965 17.5399 7.97539 17.7148 7.76419 17.7234C7.76205 17.7234 7.75992 17.7234 7.75779 17.7234C7.55085 17.7127 7.39299 17.5356 7.40365 17.3287C7.40365 17.3223 7.40365 17.3159 7.40579 17.3116V15.1399L7.39725 13.9495Z" fill="#53CBC8"/>
</g>
<mask id="mask3_3203_705" style="mask-type:luminance" maskUnits="userSpaceOnUse" x="2" y="2" width="16" height="16">
<path d="M18 2H2V18H18V2Z" fill="white"/>
</mask>
<g mask="url(#mask3_3203_705)">
<path d="M6.71202 12.3059V13.9273C6.71202 14.2046 6.56056 14.3838 6.35362 14.3838C6.14882 14.3838 5.98456 14.1897 5.98242 13.9273V10.6825C5.98242 10.3987 6.14882 10.2067 6.36429 10.2259C6.57976 10.2451 6.70776 10.4073 6.70989 10.6931C6.71202 11.2243 6.71202 11.7641 6.71202 12.3059Z" fill="#53CBC8"/>
</g>
<mask id="mask4_3203_705" style="mask-type:luminance" maskUnits="userSpaceOnUse" x="2" y="2" width="16" height="16">
<path d="M18 2H2V18H18V2Z" fill="white"/>
</mask>
<g mask="url(#mask4_3203_705)">
<path d="M8.81836 12.3047V11.1676C8.81836 10.9031 8.95916 10.7324 9.16823 10.7324C9.38369 10.7431 9.55223 10.9266 9.54156 11.142C9.54156 11.1463 9.54156 11.1527 9.54156 11.157C9.54796 11.9314 9.54796 12.7058 9.54156 13.4823C9.54156 13.7468 9.39009 13.9068 9.17036 13.9026C8.95276 13.9004 8.82049 13.7383 8.81836 13.4674V12.3047Z" fill="#53CBC8"/>
</g>
<mask id="mask5_3203_705" style="mask-type:luminance" maskUnits="userSpaceOnUse" x="2" y="2" width="16" height="16">
<path d="M18 2H2V18H18V2Z" fill="white"/>
</mask>
<g mask="url(#mask5_3203_705)">
<path d="M4.57031 12.5383V11.3991C4.57031 11.1345 4.71111 10.9639 4.92018 10.9639C5.13565 10.9745 5.30418 11.158 5.29351 11.3735C5.29351 11.3777 5.29351 11.3841 5.29351 11.3884C5.29991 12.1649 5.29991 12.9393 5.29351 13.7159C5.29351 13.9804 5.14205 14.1383 4.92445 14.1361C4.70898 14.134 4.57245 13.9719 4.57031 13.7009V12.5383Z" fill="#53CBC8"/>
</g>
<mask id="mask6_3203_705" style="mask-type:luminance" maskUnits="userSpaceOnUse" x="2" y="2" width="16" height="16">
<path d="M18 2H2V18H18V2Z" fill="white"/>
</mask>
<g mask="url(#mask6_3203_705)">
<path d="M10.5869 11.5703C10.7853 11.5703 10.9453 11.7303 10.9453 11.9287V12.5474C10.9453 12.7458 10.7853 12.9058 10.5869 12.9058C10.3885 12.9058 10.2285 12.7458 10.2285 12.5474V11.9287C10.2306 11.7324 10.3906 11.5703 10.5869 11.5703Z" fill="#53CBC8"/>
</g>
<mask id="mask7_3203_705" style="mask-type:luminance" maskUnits="userSpaceOnUse" x="2" y="2" width="16" height="16">
<path d="M18 2H2V18H18V2Z" fill="white"/>
</mask>
<g mask="url(#mask7_3203_705)">
<path d="M12.0049 12.1143C12.2033 12.1143 12.3633 12.2743 12.3633 12.4727V15.9479C12.3633 16.1463 12.2033 16.3063 12.0049 16.3063C11.8065 16.3063 11.6465 16.1463 11.6465 15.9479V12.4727C11.6465 12.2743 11.8065 12.1143 12.0049 12.1143Z" fill="#53CBC8"/>
</g>
<mask id="mask8_3203_705" style="mask-type:luminance" maskUnits="userSpaceOnUse" x="2" y="2" width="16" height="16">
<path d="M18 2H2V18H18V2Z" fill="white"/>
</mask>
<g mask="url(#mask8_3203_705)">
<path d="M13.417 12.248C13.6154 12.248 13.7754 12.408 13.7754 12.6064V15.559C13.7754 15.7574 13.6154 15.9174 13.417 15.9174C13.2186 15.9174 13.0586 15.7574 13.0586 15.559V12.6064C13.0586 12.408 13.2186 12.248 13.417 12.248Z" fill="#53CBC8"/>
</g>
<mask id="mask9_3203_705" style="mask-type:luminance" maskUnits="userSpaceOnUse" x="2" y="2" width="16" height="16">
<path d="M18 2H2V18H18V2Z" fill="white"/>
</mask>
<g mask="url(#mask9_3203_705)">
<path d="M14.8428 11.9121C15.0412 11.9121 15.2012 12.0721 15.2012 12.2705V13.5441C15.2012 13.7425 15.0412 13.9025 14.8428 13.9025C14.6444 13.9025 14.4844 13.7425 14.4844 13.5441V12.2705C14.4844 12.0721 14.6465 11.9121 14.8428 11.9121Z" fill="#53CBC8"/>
</g>
</svg>
