<svg width="20" height="20" viewBox="0 0 20 20" fill="none" xmlns="http://www.w3.org/2000/svg">
<g clip-path="url(#clip0_95_5)">
<path d="M10 20C15.5228 20 20 15.5228 20 10C20 4.47715 15.5228 0 10 0C4.47715 0 0 4.47715 0 10C0 15.5228 4.47715 20 10 20Z" fill="#0088CC"/>
<path fill-rule="evenodd" clip-rule="evenodd" d="M7.21395 6.60718H12.8211C13.0354 6.60718 13.2139 6.64289 13.4282 6.75003C13.6782 6.85718 13.8211 7.03575 13.8925 7.17861C13.8925 7.17861 13.8925 7.21432 13.9282 7.21432C14.0354 7.39289 14.1068 7.60718 14.1068 7.85718C14.1068 8.07146 14.0711 8.28575 13.9282 8.50003L10.3925 14.5715C10.3211 14.7143 10.1782 14.7857 9.99966 14.7857C9.85681 14.7857 9.71395 14.7143 9.60681 14.5715L6.14252 8.50003C6.07109 8.35718 5.92824 8.17861 5.92824 7.89289C5.89252 7.64289 5.96395 7.42861 6.07109 7.21432C6.17824 7.00004 6.35681 6.82146 6.60681 6.75003C6.82109 6.60718 7.07109 6.60718 7.21395 6.60718ZM9.57109 7.46432H7.21395C7.07109 7.46432 6.99966 7.46432 6.96395 7.50003C6.89252 7.53575 6.85681 7.57146 6.82109 7.64289C6.78538 7.67861 6.78538 7.75003 6.78538 7.82146C6.78538 7.85718 6.82109 7.89289 6.89252 8.03575L9.57109 12.6786V7.46432ZM10.4282 7.46432V12.7143L13.1425 8.03575C13.1782 7.96432 13.1782 7.89289 13.1782 7.82146C13.1782 7.75003 13.1782 7.67861 13.1425 7.64289C13.1068 7.60718 13.1068 7.57146 13.0711 7.57146L13.0354 7.53575C12.9639 7.50003 12.8925 7.50003 12.7854 7.50003H10.4282V7.46432Z" fill="white"/>
</g>
<defs>
<clipPath id="clip0_95_5">
<rect width="20" height="20" fill="white"/>
</clipPath>
</defs>
</svg>
