<svg width="20" height="20" viewBox="0 0 20 20" fill="none" xmlns="http://www.w3.org/2000/svg">
<g clip-path="url(#clip0_3482_611)">
<path d="M10 20C15.5249 20 20 15.5218 20 10C20 4.47821 15.5249 0 10 0C4.4751 0 0 4.47821 0 10C0 15.5218 4.47893 20 10 20Z" fill="#FF060A"/>
<path d="M15.4561 7.7358C14.9043 7.24538 14.1381 6.49825 13.5174 5.96952L13.479 5.94653C13.4177 5.90055 13.3488 5.86224 13.276 5.83542C11.7741 5.56722 4.78556 4.31434 4.65146 4.32967C4.61315 4.3335 4.57483 4.34883 4.54418 4.36798L4.5097 4.3948C4.46755 4.43695 4.43307 4.48676 4.41391 4.54423L4.40625 4.56722V4.69365V4.71281C5.19169 6.81243 8.29897 13.686 8.912 15.3028C8.95031 15.414 9.01928 15.6209 9.14954 15.6323H9.1802C9.24916 15.6323 9.54801 15.253 9.54801 15.253C9.54801 15.253 14.8852 9.05381 15.4254 8.3948C15.4944 8.31434 15.5557 8.22622 15.6093 8.13427C15.6246 8.06147 15.617 7.98867 15.5902 7.91971C15.5633 7.85074 15.5135 7.78561 15.4561 7.7358ZM10.912 8.45994L13.1879 6.65151L14.525 7.83158L10.912 8.45994ZM10.0269 8.34116L6.1074 5.2607L12.4522 6.38331L10.0269 8.34116ZM10.3794 9.14576L14.3909 8.52507L9.80472 13.8239L10.3794 9.14576ZM5.57483 5.57105L9.70127 8.92354L9.10357 13.8278L5.57483 5.57105Z" fill="white"/>
</g>
<defs>
<clipPath id="clip0_3482_611">
<rect width="20" height="20" fill="white"/>
</clipPath>
</defs>
</svg>
